<?xml version="1.0" encoding="utf-8"?>
<svg xmlns="http://www.w3.org/2000/svg" viewBox="0 0 400 400">
  <path fill="#1DA1F2" d="M125.792,362.474 C276.736,362.474 359.296,237.418 359.296,128.97 C359.296,125.418 359.296,121.882 359.056,118.362 C375.117,106.744 388.982,92.36 400,75.882 C385.022,82.519 369.133,86.871 352.864,88.794 C369.996,78.538 382.818,62.406 388.944,43.402 C372.835,52.961 355.21,59.698 336.832,63.322 C311.393,36.272 270.971,29.652 238.233,47.173 C205.494,64.694 188.58,101.999 196.976,138.17 C130.99,134.862 69.512,103.695 27.84,52.426 C6.058,89.924 17.184,137.896 53.248,161.978 C40.188,161.591 27.412,158.068 16,151.706 C16,152.042 16,152.394 16,152.746 C16.011,191.811 43.548,225.458 81.84,233.194 C69.758,236.489 57.081,236.971 44.784,234.602 C55.535,268.033 86.345,290.934 121.456,291.594 C92.396,314.433 56.497,326.831 19.536,326.794 C13.006,326.781 6.483,326.386 -0,325.61 C37.53,349.694 81.199,362.469 125.792,362.41"/>
</svg>