<?xml version="1.0" encoding="UTF-8"?>
<svg xmlns="http://www.w3.org/2000/svg" xmlns:xlink="http://www.w3.org/1999/xlink" width="400" height="400" version="1.1" viewBox="0 0 400 400">
  <g>
    <path fill="#1977F3" d="M400,201 C400,90.551 310.449,1 200,1 C89.551,1 -0,90.551 -0,201 C-0,300.817 73.126,383.562 168.753,398.581 L168.753,258.826 L117.958,258.826 L117.958,201 L168.753,201 L168.753,156.927 C168.753,106.808 198.622,79.104 244.298,79.104 C266.179,79.104 289.073,83.014 289.073,83.014 L289.073,132.233 L263.845,132.233 C239.01,132.233 231.247,147.646 231.247,163.481 L231.247,201 L286.711,201 L277.851,258.826 L231.247,258.826 L231.247,398.581 C326.874,383.59 400,300.845 400,201 z"/>
    <path fill="#FEFEFE" d="M277.851,257.826 L286.711,200 L231.247,200 L231.247,162.481 C231.247,146.674 238.982,131.233 263.845,131.233 L289.073,131.233 L289.073,82.014 C289.073,82.014 266.179,78.104 244.298,78.104 C198.622,78.104 168.753,105.78 168.753,155.927 L168.753,200 L117.958,200 L117.958,257.826 L168.753,257.826 L168.753,397.581 C178.934,399.184 189.369,400 200,400 C210.631,400 221.066,399.156 231.247,397.581 L231.247,257.826 L277.851,257.826 z"/>
  </g>
</svg>