<?xml version="1.0" encoding="UTF-8"?>
<svg version="1.1" xmlns="http://www.w3.org/2000/svg" xmlns:xlink="http://www.w3.org/1999/xlink" x="0" y="0" width="500" height="500" viewBox="0, 0, 500, 500">
  <g id="mandala" stroke="blue" fill="none" stroke-opacity="0.2">
    <path d="M250.5,240.28 C244.977,240.28 240.5,235.803 240.5,230.28 C240.5,224.757 244.977,220.28 250.5,220.28 C256.023,220.28 260.5,224.757 260.5,230.28 C260.5,235.803 256.023,240.28 250.5,240.28 z"/>
    <path d="M241.649,245.39 C238.888,250.173 232.772,251.812 227.989,249.05 C223.206,246.289 221.567,240.173 224.329,235.39 C227.09,230.607 233.206,228.968 237.989,231.73 C242.772,234.491 244.411,240.607 241.649,245.39 z"/>
    <path d="M241.649,255.61 C244.41,260.393 242.772,266.508 237.989,269.27 C233.206,272.031 227.09,270.393 224.328,265.61 C221.567,260.827 223.206,254.711 227.989,251.949 C232.772,249.188 238.887,250.827 241.649,255.61 z"/>
    <path d="M250.499,260.72 C256.022,260.72 260.499,265.197 260.499,270.72 C260.499,276.243 256.022,280.72 250.499,280.72 C244.977,280.72 240.499,276.243 240.499,270.72 C240.499,265.197 244.977,260.72 250.499,260.72 z"/>
    <path d="M259.35,255.61 C262.112,250.827 268.227,249.188 273.01,251.95 C277.793,254.711 279.432,260.827 276.671,265.61 C273.909,270.393 267.793,272.032 263.01,269.27 C258.227,266.509 256.589,260.393 259.35,255.61 z"/>
    <path d="M259.35,245.39 C256.589,240.607 258.228,234.492 263.011,231.73 C267.794,228.969 273.91,230.607 276.671,235.39 C279.432,240.173 277.794,246.289 273.011,249.051 C268.228,251.812 262.112,250.173 259.35,245.39 z"/>
    <path d="M250.5,219.5 C245.529,219.5 241.5,215.471 241.5,210.5 C241.5,205.529 245.529,201.5 250.5,201.5 C255.471,201.5 259.5,205.529 259.5,210.5 C259.5,215.471 255.471,219.5 250.5,219.5 z"/>
    <path d="M237.057,222.566 C232.578,224.722 227.199,222.839 225.044,218.36 C222.888,213.881 224.772,208.503 229.251,206.347 C233.73,204.192 239.108,206.075 241.263,210.554 C243.419,215.033 241.535,220.411 237.057,222.566 z"/>
    <path d="M226.273,231.159 C223.172,235.044 217.509,235.679 213.624,232.578 C209.74,229.477 209.104,223.814 212.205,219.93 C215.306,216.045 220.969,215.41 224.854,218.511 C228.739,221.612 229.374,227.275 226.273,231.159 z"/>
    <path d="M220.282,243.579 C219.172,248.424 214.345,251.452 209.5,250.343 C204.655,249.233 201.627,244.406 202.736,239.56 C203.846,234.715 208.673,231.687 213.519,232.797 C218.364,233.907 221.392,238.734 220.282,243.579 z"/>
    <path d="M220.27,257.368 C221.371,262.215 218.335,267.037 213.488,268.138 C208.641,269.239 203.819,266.203 202.717,261.356 C201.616,256.509 204.653,251.687 209.5,250.585 C214.347,249.484 219.169,252.521 220.27,257.368 z"/>
    <path d="M226.239,269.798 C229.333,273.688 228.688,279.35 224.798,282.444 C220.908,285.538 215.246,284.893 212.152,281.003 C209.057,277.113 209.703,271.451 213.593,268.357 C217.483,265.263 223.144,265.908 226.239,269.798 z"/>
    <path d="M237.007,278.41 C241.482,280.573 243.356,285.955 241.193,290.43 C239.03,294.905 233.648,296.779 229.173,294.615 C224.698,292.452 222.824,287.071 224.987,282.596 C227.151,278.12 232.532,276.246 237.007,278.41 z"/>
    <path d="M250.445,281.5 C255.416,281.509 259.438,285.545 259.43,290.516 C259.421,295.486 255.384,299.509 250.414,299.5 C245.443,299.491 241.421,295.455 241.43,290.484 C241.438,285.514 245.475,281.491 250.445,281.5 z"/>
    <path d="M263.894,278.457 C268.377,276.309 273.752,278.202 275.899,282.685 C278.047,287.167 276.154,292.542 271.672,294.69 C267.189,296.838 261.814,294.945 259.666,290.462 C257.519,285.98 259.411,280.605 263.894,278.457 z"/>
    <path d="M274.693,269.883 C277.801,266.004 283.465,265.378 287.344,268.486 C291.223,271.594 291.848,277.258 288.741,281.137 C285.633,285.016 279.969,285.642 276.09,282.534 C272.21,279.426 271.585,273.762 274.693,269.883 z"/>
    <path d="M280.705,257.474 C281.823,252.631 286.656,249.611 291.499,250.729 C296.342,251.847 299.362,256.68 298.244,261.523 C297.126,266.366 292.293,269.386 287.45,268.268 C282.607,267.15 279.587,262.317 280.705,257.474 z"/>
    <path d="M280.741,243.685 C279.649,238.836 282.694,234.019 287.543,232.927 C292.391,231.834 297.208,234.879 298.301,239.728 C299.394,244.577 296.349,249.394 291.5,250.486 C286.651,251.579 281.834,248.534 280.741,243.685 z"/>
    <path d="M274.794,231.245 C271.707,227.349 272.362,221.689 276.257,218.601 C280.153,215.514 285.813,216.169 288.901,220.064 C291.988,223.959 291.333,229.62 287.438,232.708 C283.543,235.795 277.882,235.14 274.794,231.245 z"/>
    <path d="M264.041,222.614 C259.569,220.443 257.705,215.058 259.876,210.587 C262.047,206.115 267.432,204.251 271.903,206.422 C276.375,208.593 278.239,213.978 276.068,218.449 C273.897,222.92 268.512,224.785 264.041,222.614 z"/>
    <path d="M250.5,198.5 C246.082,198.5 242.5,194.918 242.5,190.5 C242.5,186.082 246.082,182.5 250.5,182.5 C254.918,182.5 258.5,186.082 258.5,190.5 C258.5,194.918 254.918,198.5 250.5,198.5 z"/>
    <path d="M234.431,201.045 C230.229,202.41 225.716,200.111 224.351,195.909 C222.985,191.707 225.285,187.193 229.487,185.828 C233.689,184.463 238.202,186.762 239.567,190.964 C240.933,195.166 238.633,199.68 234.431,201.045 z"/>
    <path d="M219.935,208.431 C216.361,211.028 211.358,210.236 208.761,206.661 C206.164,203.087 206.956,198.084 210.531,195.487 C214.105,192.89 219.108,193.682 221.705,197.257 C224.302,200.831 223.51,205.834 219.935,208.431 z"/>
    <path d="M208.431,219.935 C205.834,223.509 200.831,224.302 197.257,221.705 C193.682,219.108 192.89,214.105 195.487,210.53 C198.084,206.956 203.087,206.163 206.661,208.76 C210.236,211.357 211.028,216.36 208.431,219.935 z"/>
    <path d="M201.045,234.431 C199.68,238.633 195.166,240.932 190.964,239.567 C186.762,238.202 184.463,233.689 185.828,229.487 C187.193,225.285 191.706,222.985 195.909,224.35 C200.111,225.716 202.41,230.229 201.045,234.431 z"/>
    <path d="M198.5,250.5 C198.5,254.918 194.918,258.5 190.5,258.5 C186.081,258.5 182.5,254.918 182.5,250.5 C182.5,246.081 186.081,242.5 190.5,242.5 C194.918,242.5 198.5,246.081 198.5,250.5 z"/>
    <path d="M201.045,266.569 C202.41,270.771 200.11,275.284 195.908,276.649 C191.706,278.014 187.193,275.715 185.828,271.513 C184.462,267.311 186.762,262.798 190.964,261.432 C195.166,260.067 199.679,262.367 201.045,266.569 z"/>
    <path d="M208.431,281.065 C211.028,284.639 210.235,289.642 206.661,292.239 C203.086,294.836 198.083,294.044 195.486,290.469 C192.889,286.895 193.682,281.892 197.256,279.295 C200.831,276.698 205.834,277.49 208.431,281.065 z"/>
    <path d="M219.935,292.569 C223.509,295.166 224.301,300.169 221.704,303.743 C219.107,307.318 214.104,308.11 210.53,305.513 C206.956,302.916 206.163,297.913 208.76,294.339 C211.357,290.764 216.36,289.972 219.935,292.569 z"/>
    <path d="M234.43,299.955 C238.633,301.32 240.932,305.833 239.567,310.035 C238.201,314.237 233.688,316.537 229.486,315.172 C225.284,313.806 222.985,309.293 224.35,305.091 C225.715,300.889 230.228,298.59 234.43,299.955 z"/>
    <path d="M250.499,302.5 C254.918,302.5 258.499,306.082 258.499,310.5 C258.499,314.918 254.918,318.5 250.499,318.5 C246.081,318.5 242.499,314.918 242.499,310.5 C242.499,306.082 246.081,302.5 250.499,302.5 z"/>
    <path d="M266.568,299.955 C270.77,298.59 275.284,300.889 276.649,305.091 C278.014,309.293 275.715,313.807 271.513,315.172 C267.31,316.537 262.797,314.238 261.432,310.036 C260.067,305.834 262.366,301.32 266.568,299.955 z"/>
    <path d="M281.064,292.569 C284.639,289.972 289.642,290.764 292.239,294.339 C294.836,297.913 294.043,302.916 290.469,305.513 C286.894,308.11 281.891,307.318 279.294,303.743 C276.697,300.169 277.49,295.166 281.064,292.569 z"/>
    <path d="M292.568,281.065 C295.165,277.491 300.168,276.698 303.743,279.295 C307.317,281.892 308.11,286.895 305.513,290.47 C302.916,294.044 297.913,294.837 294.338,292.24 C290.764,289.643 289.971,284.64 292.568,281.065 z"/>
    <path d="M299.955,266.569 C301.32,262.367 305.833,260.068 310.035,261.433 C314.237,262.798 316.537,267.311 315.171,271.513 C313.806,275.715 309.293,278.015 305.091,276.65 C300.889,275.284 298.589,270.771 299.955,266.569 z"/>
    <path d="M302.5,250.5 C302.5,246.082 306.081,242.5 310.5,242.5 C314.918,242.5 318.5,246.082 318.5,250.5 C318.5,254.919 314.918,258.5 310.5,258.5 C306.081,258.5 302.5,254.919 302.5,250.5 z"/>
    <path d="M299.955,234.431 C298.589,230.229 300.889,225.716 305.091,224.351 C309.293,222.986 313.806,225.285 315.172,229.487 C316.537,233.689 314.237,238.202 310.035,239.568 C305.833,240.933 301.32,238.633 299.955,234.431 z"/>
    <path d="M292.569,219.935 C289.972,216.361 290.764,211.358 294.339,208.761 C297.913,206.164 302.916,206.956 305.513,210.531 C308.11,214.105 307.318,219.108 303.743,221.705 C300.169,224.302 295.166,223.51 292.569,219.935 z"/>
    <path d="M281.065,208.431 C277.49,205.834 276.698,200.831 279.295,197.257 C281.892,193.682 286.895,192.89 290.469,195.487 C294.044,198.084 294.836,203.087 292.239,206.661 C289.642,210.236 284.639,211.028 281.065,208.431 z"/>
    <path d="M266.569,201.045 C262.367,199.68 260.067,195.167 261.433,190.965 C262.798,186.763 267.311,184.463 271.513,185.828 C275.715,187.194 278.015,191.707 276.649,195.909 C275.284,200.111 270.771,202.41 266.569,201.045 z"/>
    <path d="M250.5,177.5 C246.634,177.5 243.5,174.366 243.5,170.5 C243.5,166.634 246.634,163.5 250.5,163.5 C254.366,163.5 257.5,166.634 257.5,170.5 C257.5,174.366 254.366,177.5 250.5,177.5 z"/>
    <path d="M233.669,179.467 C229.907,180.358 226.135,178.031 225.244,174.269 C224.353,170.507 226.68,166.735 230.441,165.844 C234.203,164.953 237.975,167.28 238.867,171.041 C239.758,174.803 237.431,178.575 233.669,179.467 z"/>
    <path d="M217.745,185.261 C214.29,186.996 210.083,185.601 208.349,182.146 C206.614,178.691 208.008,174.484 211.463,172.749 C214.918,171.015 219.125,172.409 220.86,175.864 C222.595,179.319 221.2,183.526 217.745,185.261 z"/>
    <path d="M203.586,194.57 C200.624,197.055 196.209,196.668 193.725,193.706 C191.24,190.744 191.627,186.329 194.589,183.844 C197.551,181.36 201.966,181.747 204.451,184.709 C206.935,187.671 206.548,192.086 203.586,194.57 z"/>
    <path d="M191.955,206.894 C189.646,209.994 185.26,210.635 182.16,208.326 C179.059,206.017 178.418,201.631 180.727,198.531 C183.037,195.43 187.422,194.789 190.523,197.098 C193.623,199.408 194.264,203.793 191.955,206.894 z"/>
    <path d="M183.478,221.566 C181.946,225.116 177.827,226.751 174.277,225.219 C170.728,223.686 169.093,219.567 170.625,216.018 C172.157,212.468 176.277,210.833 179.826,212.365 C183.376,213.898 185.011,218.017 183.478,221.566 z"/>
    <path d="M178.613,237.798 C177.941,241.605 174.309,244.146 170.502,243.474 C166.695,242.801 164.154,239.169 164.827,235.362 C165.499,231.555 169.131,229.014 172.938,229.687 C176.745,230.36 179.286,233.991 178.613,237.798 z"/>
    <path d="M177.621,254.715 C177.845,258.574 174.897,261.884 171.037,262.107 C167.178,262.33 163.868,259.382 163.645,255.523 C163.422,251.663 166.369,248.354 170.229,248.13 C174.088,247.907 177.398,250.855 177.621,254.715 z"/>
    <path d="M180.557,271.404 C181.664,275.108 179.558,279.008 175.854,280.115 C172.15,281.222 168.25,279.117 167.143,275.413 C166.036,271.709 168.141,267.809 171.845,266.701 C175.549,265.594 179.45,267.7 180.557,271.404 z"/>
    <path d="M187.261,286.967 C189.192,290.316 188.042,294.596 184.693,296.527 C181.344,298.459 177.064,297.309 175.133,293.96 C173.201,290.611 174.351,286.331 177.7,284.399 C181.049,282.468 185.329,283.618 187.261,286.967 z"/>
    <path d="M197.372,300.565 C200.023,303.378 199.892,307.808 197.078,310.46 C194.265,313.111 189.835,312.98 187.183,310.166 C184.532,307.352 184.663,302.922 187.477,300.271 C190.29,297.619 194.721,297.751 197.372,300.565 z"/>
    <path d="M210.346,311.465 C213.575,313.591 214.468,317.932 212.342,321.161 C210.215,324.39 205.874,325.283 202.646,323.157 C199.417,321.03 198.524,316.689 200.65,313.46 C202.776,310.232 207.118,309.338 210.346,311.465 z"/>
    <path d="M225.484,319.08 C229.116,320.405 230.986,324.423 229.661,328.055 C228.337,331.687 224.318,333.557 220.687,332.232 C217.055,330.908 215.184,326.889 216.509,323.257 C217.834,319.626 221.852,317.755 225.484,319.08 z"/>
    <path d="M241.97,323 C245.809,323.452 248.556,326.93 248.104,330.77 C247.652,334.609 244.173,337.356 240.334,336.904 C236.494,336.452 233.748,332.974 234.2,329.134 C234.652,325.295 238.13,322.548 241.97,323 z"/>
    <path d="M258.915,323.013 C262.755,322.568 266.23,325.319 266.675,329.16 C267.121,333 264.369,336.474 260.529,336.92 C256.689,337.366 253.214,334.614 252.769,330.774 C252.323,326.933 255.075,323.459 258.915,323.013 z"/>
    <path d="M275.407,319.119 C279.041,317.8 283.056,319.677 284.375,323.311 C285.694,326.945 283.818,330.96 280.184,332.279 C276.55,333.598 272.535,331.722 271.215,328.088 C269.896,324.454 271.773,320.439 275.407,319.119 z"/>
    <path d="M290.557,311.528 C293.789,309.407 298.129,310.307 300.25,313.539 C302.371,316.771 301.471,321.111 298.239,323.232 C295.007,325.353 290.667,324.453 288.546,321.221 C286.425,317.989 287.325,313.65 290.557,311.528 z"/>
    <path d="M303.548,300.648 C306.204,297.839 310.634,297.714 313.444,300.37 C316.253,303.026 316.378,307.456 313.722,310.266 C311.066,313.075 306.636,313.2 303.826,310.544 C301.017,307.888 300.892,303.458 303.548,300.648 z"/>
    <path d="M313.681,287.066 C315.618,283.72 319.9,282.578 323.246,284.514 C326.592,286.451 327.735,290.733 325.798,294.079 C323.862,297.425 319.579,298.568 316.233,296.631 C312.887,294.695 311.745,290.412 313.681,287.066 z"/>
    <path d="M320.41,271.514 C321.523,267.812 325.426,265.713 329.128,266.826 C332.831,267.938 334.93,271.842 333.817,275.544 C332.704,279.247 328.801,281.346 325.098,280.233 C321.396,279.12 319.297,275.217 320.41,271.514 z"/>
    <path d="M323.371,254.83 C323.6,250.97 326.915,248.028 330.774,248.257 C334.633,248.486 337.576,251.801 337.347,255.66 C337.117,259.519 333.803,262.462 329.944,262.233 C326.085,262.003 323.142,258.689 323.371,254.83 z"/>
    <path d="M322.406,237.912 C321.739,234.104 324.286,230.476 328.094,229.81 C331.902,229.143 335.53,231.69 336.196,235.498 C336.863,239.306 334.316,242.933 330.508,243.6 C326.7,244.267 323.073,241.72 322.406,237.912 z"/>
    <path d="M317.567,221.672 C316.04,218.121 317.682,214.004 321.233,212.477 C324.785,210.95 328.902,212.592 330.429,216.144 C331.955,219.695 330.314,223.812 326.762,225.339 C323.21,226.866 319.093,225.224 317.567,221.672 z"/>
    <path d="M309.113,206.986 C306.809,203.882 307.457,199.498 310.561,197.193 C313.665,194.889 318.05,195.537 320.354,198.641 C322.659,201.745 322.01,206.13 318.906,208.434 C315.802,210.738 311.418,210.09 309.113,206.986 z"/>
    <path d="M297.502,194.645 C294.543,192.155 294.163,187.74 296.652,184.782 C299.142,181.823 303.557,181.443 306.516,183.933 C309.474,186.422 309.854,190.837 307.365,193.796 C304.875,196.754 300.46,197.134 297.502,194.645 z"/>
    <path d="M283.357,185.313 C279.905,183.573 278.517,179.363 280.257,175.911 C281.997,172.459 286.206,171.071 289.659,172.811 C293.111,174.551 294.499,178.76 292.759,182.213 C291.019,185.665 286.809,187.053 283.357,185.313 z"/>
    <path d="M267.442,179.493 C263.682,178.596 261.361,174.82 262.258,171.06 C263.155,167.299 266.931,164.978 270.692,165.876 C274.452,166.773 276.773,170.549 275.876,174.309 C274.979,178.07 271.203,180.391 267.442,179.493 z"/>
    <path d="M250.5,156.5 C247.186,156.5 244.5,153.814 244.5,150.5 C244.5,147.186 247.186,144.5 250.5,144.5 C253.814,144.5 256.5,147.186 256.5,150.5 C256.5,153.814 253.814,156.5 250.5,156.5 z"/>
    <path d="M233.225,158.101 C229.967,158.71 226.833,156.563 226.224,153.306 C225.615,150.049 227.762,146.914 231.019,146.305 C234.277,145.696 237.411,147.843 238.02,151.101 C238.629,154.358 236.482,157.492 233.225,158.101 z"/>
    <path d="M216.538,162.85 C213.448,164.047 209.973,162.513 208.775,159.423 C207.578,156.333 209.112,152.857 212.202,151.66 C215.292,150.463 218.768,151.997 219.965,155.087 C221.162,158.177 219.628,161.652 216.538,162.85 z"/>
    <path d="M201.008,170.584 C198.191,172.329 194.493,171.459 192.748,168.642 C191.003,165.825 191.873,162.127 194.69,160.382 C197.507,158.637 201.205,159.507 202.95,162.324 C204.695,165.141 203.825,168.839 201.008,170.584 z"/>
    <path d="M187.164,181.041 C184.715,183.273 180.92,183.098 178.688,180.65 C176.455,178.201 176.63,174.406 179.079,172.174 C181.527,169.941 185.322,170.116 187.555,172.564 C189.788,175.013 189.613,178.808 187.164,181.041 z"/>
    <path d="M175.478,193.864 C173.481,196.508 169.719,197.034 167.074,195.037 C164.429,193.041 163.904,189.278 165.9,186.633 C167.897,183.989 171.659,183.463 174.304,185.46 C176.949,187.456 177.474,191.219 175.478,193.864 z"/>
    <path d="M166.347,208.616 C164.87,211.582 161.268,212.79 158.302,211.314 C155.335,209.837 154.127,206.236 155.604,203.269 C157.08,200.302 160.682,199.094 163.649,200.571 C166.615,202.047 167.823,205.649 166.347,208.616 z"/>
    <path d="M160.083,224.795 C159.176,227.982 155.858,229.832 152.671,228.925 C149.483,228.019 147.634,224.701 148.54,221.513 C149.446,218.326 152.765,216.477 155.952,217.383 C159.139,218.289 160.989,221.607 160.083,224.795 z"/>
    <path d="M156.899,241.85 C156.594,245.149 153.672,247.577 150.372,247.272 C147.072,246.967 144.645,244.045 144.949,240.745 C145.254,237.446 148.177,235.018 151.476,235.323 C154.776,235.628 157.204,238.55 156.899,241.85 z"/>
    <path d="M156.903,259.199 C157.21,262.498 154.784,265.422 151.484,265.728 C148.185,266.035 145.261,263.609 144.955,260.309 C144.648,257.01 147.074,254.087 150.374,253.78 C153.673,253.473 156.596,255.899 156.903,259.199 z"/>
    <path d="M160.096,276.252 C161.004,279.439 159.156,282.758 155.969,283.666 C152.782,284.574 149.463,282.726 148.555,279.539 C147.647,276.352 149.495,273.033 152.682,272.125 C155.869,271.217 159.188,273.065 160.096,276.252 z"/>
    <path d="M166.368,292.428 C167.846,295.393 166.64,298.996 163.675,300.474 C160.709,301.952 157.106,300.746 155.628,297.78 C154.15,294.814 155.356,291.212 158.322,289.734 C161.288,288.256 164.89,289.462 166.368,292.428 z"/>
    <path d="M175.507,307.175 C177.505,309.819 176.981,313.582 174.338,315.579 C171.694,317.577 167.931,317.054 165.933,314.41 C163.935,311.767 164.459,308.004 167.102,306.006 C169.746,304.008 173.509,304.531 175.507,307.175 z"/>
    <path d="M187.2,319.992 C189.65,322.223 189.827,326.018 187.595,328.468 C185.364,330.918 181.569,331.095 179.119,328.863 C176.669,326.632 176.492,322.837 178.724,320.387 C180.955,317.937 184.75,317.76 187.2,319.992 z"/>
    <path d="M201.049,330.442 C203.867,332.185 204.739,335.882 202.995,338.701 C201.252,341.519 197.555,342.39 194.736,340.647 C191.918,338.904 191.047,335.206 192.79,332.388 C194.533,329.57 198.231,328.698 201.049,330.442 z"/>
    <path d="M216.583,338.168 C219.674,339.364 221.21,342.838 220.014,345.929 C218.818,349.019 215.344,350.555 212.253,349.36 C209.163,348.164 207.627,344.689 208.822,341.599 C210.018,338.508 213.493,336.972 216.583,338.168 z"/>
    <path d="M233.272,342.908 C236.53,343.515 238.678,346.648 238.071,349.906 C237.464,353.163 234.331,355.312 231.073,354.705 C227.816,354.097 225.667,350.964 226.274,347.707 C226.882,344.449 230.015,342.301 233.272,342.908 z"/>
    <path d="M250.549,344.5 C253.862,344.498 256.55,347.183 256.552,350.497 C256.553,353.811 253.869,356.498 250.555,356.5 C247.241,356.502 244.553,353.817 244.552,350.503 C244.55,347.189 247.235,344.502 250.549,344.5 z"/>
    <path d="M267.823,342.89 C271.08,342.279 274.215,344.424 274.826,347.681 C275.437,350.938 273.291,354.074 270.035,354.684 C266.778,355.295 263.642,353.15 263.032,349.893 C262.421,346.636 264.566,343.501 267.823,342.89 z"/>
    <path d="M284.507,338.133 C287.597,336.934 291.073,338.466 292.272,341.555 C293.47,344.645 291.938,348.121 288.849,349.32 C285.76,350.519 282.283,348.986 281.084,345.897 C279.886,342.808 281.418,339.332 284.507,338.133 z"/>
    <path d="M300.033,330.39 C302.849,328.644 306.548,329.511 308.294,332.328 C310.04,335.144 309.173,338.843 306.357,340.589 C303.54,342.335 299.842,341.467 298.096,338.651 C296.349,335.835 297.217,332.136 300.033,330.39 z"/>
    <path d="M313.872,319.926 C316.319,317.692 320.114,317.865 322.348,320.313 C324.582,322.76 324.409,326.555 321.962,328.789 C319.514,331.023 315.719,330.85 313.485,328.403 C311.251,325.955 311.424,322.16 313.872,319.926 z"/>
    <path d="M325.551,307.097 C327.547,304.451 331.309,303.924 333.955,305.919 C336.6,307.914 337.128,311.677 335.133,314.322 C333.137,316.968 329.375,317.495 326.729,315.5 C324.084,313.505 323.556,309.743 325.551,307.097 z"/>
    <path d="M334.674,292.34 C336.149,289.373 339.751,288.163 342.718,289.638 C345.685,291.113 346.895,294.714 345.42,297.681 C343.945,300.649 340.344,301.859 337.377,300.384 C334.409,298.909 333.2,295.307 334.674,292.34 z"/>
    <path d="M340.93,276.158 C341.835,272.97 345.152,271.119 348.34,272.023 C351.528,272.928 353.379,276.245 352.474,279.433 C351.57,282.621 348.253,284.472 345.065,283.568 C341.877,282.663 340.026,279.346 340.93,276.158 z"/>
    <path d="M344.105,259.102 C344.409,255.802 347.329,253.373 350.629,253.676 C353.929,253.979 356.358,256.9 356.055,260.2 C355.752,263.499 352.831,265.929 349.531,265.625 C346.231,265.322 343.802,262.401 344.105,259.102 z"/>
    <path d="M344.092,241.752 C343.783,238.453 346.208,235.528 349.507,235.22 C352.807,234.912 355.731,237.336 356.04,240.635 C356.348,243.935 353.923,246.859 350.624,247.168 C347.325,247.476 344.4,245.052 344.092,241.752 z"/>
    <path d="M340.89,224.701 C339.98,221.514 341.826,218.194 345.013,217.285 C348.199,216.375 351.52,218.221 352.429,221.407 C353.339,224.594 351.493,227.914 348.306,228.824 C345.12,229.733 341.799,227.887 340.89,224.701 z"/>
    <path d="M334.609,208.528 C333.129,205.563 334.334,201.96 337.299,200.481 C340.264,199.001 343.867,200.205 345.346,203.17 C346.826,206.135 345.622,209.738 342.657,211.218 C339.692,212.698 336.089,211.493 334.609,208.528 z"/>
    <path d="M325.463,193.786 C323.464,191.143 323.985,187.38 326.628,185.381 C329.27,183.381 333.033,183.903 335.033,186.546 C337.032,189.188 336.51,192.951 333.868,194.951 C331.225,196.95 327.462,196.428 325.463,193.786 z"/>
    <path d="M313.763,180.975 C311.312,178.745 311.133,174.95 313.363,172.499 C315.594,170.048 319.388,169.869 321.839,172.099 C324.29,174.33 324.469,178.124 322.239,180.575 C320.009,183.026 316.214,183.205 313.763,180.975 z"/>
    <path d="M299.908,170.533 C297.089,168.791 296.216,165.094 297.958,162.275 C299.7,159.456 303.397,158.582 306.216,160.324 C309.035,162.066 309.908,165.763 308.166,168.582 C306.425,171.401 302.727,172.274 299.908,170.533 z"/>
    <path d="M284.37,162.814 C281.279,161.62 279.741,158.147 280.935,155.055 C282.129,151.964 285.603,150.426 288.694,151.62 C291.785,152.814 293.323,156.288 292.129,159.379 C290.935,162.47 287.462,164.008 284.37,162.814 z"/>
    <path d="M267.679,158.083 C264.421,157.478 262.271,154.346 262.876,151.088 C263.482,147.83 266.614,145.68 269.872,146.285 C273.13,146.891 275.28,150.023 274.674,153.281 C274.069,156.539 270.937,158.689 267.679,158.083 z"/>
    <path d="M250.5,135.67 C247.739,135.67 245.5,133.431 245.5,130.67 C245.5,127.908 247.739,125.67 250.5,125.67 C253.261,125.67 255.5,127.908 255.5,130.67 C255.5,133.431 253.261,135.67 250.5,135.67 z"/>
    <path d="M232.537,137.083 C229.809,137.515 227.248,135.655 226.816,132.927 C226.384,130.2 228.245,127.638 230.972,127.206 C233.7,126.774 236.261,128.635 236.693,131.363 C237.125,134.09 235.264,136.651 232.537,137.083 z"/>
    <path d="M215.015,141.29 C212.389,142.143 209.568,140.706 208.715,138.08 C207.862,135.453 209.299,132.633 211.925,131.779 C214.552,130.926 217.372,132.363 218.226,134.989 C219.079,137.616 217.642,140.436 215.015,141.29 z"/>
    <path d="M198.368,148.185 C195.908,149.439 192.897,148.461 191.643,146 C190.389,143.54 191.368,140.529 193.828,139.275 C196.289,138.022 199.299,139 200.553,141.46 C201.807,143.921 200.829,146.932 198.368,148.185 z"/>
    <path d="M183.004,157.6 C180.77,159.223 177.643,158.728 176.02,156.494 C174.397,154.26 174.892,151.133 177.127,149.51 C179.361,147.887 182.487,148.382 184.111,150.616 C185.734,152.85 185.238,155.977 183.004,157.6 z"/>
    <path d="M169.303,169.302 C167.35,171.255 164.184,171.255 162.232,169.302 C160.279,167.35 160.279,164.184 162.232,162.231 C164.184,160.279 167.35,160.279 169.303,162.231 C171.255,164.184 171.255,167.35 169.303,169.302 z"/>
    <path d="M157.6,183.004 C155.977,185.238 152.85,185.733 150.616,184.11 C148.382,182.487 147.887,179.36 149.51,177.126 C151.133,174.892 154.26,174.397 156.494,176.02 C158.728,177.643 159.223,180.77 157.6,183.004 z"/>
    <path d="M148.185,198.368 C146.932,200.828 143.921,201.807 141.46,200.553 C139,199.299 138.022,196.288 139.275,193.828 C140.529,191.367 143.54,190.389 146,191.643 C148.461,192.897 149.439,195.907 148.185,198.368 z"/>
    <path d="M141.29,215.015 C140.436,217.641 137.616,219.079 134.989,218.225 C132.363,217.372 130.926,214.551 131.779,211.925 C132.632,209.299 135.453,207.861 138.079,208.715 C140.706,209.568 142.143,212.389 141.29,215.015 z"/>
    <path d="M137.083,232.536 C136.651,235.264 134.09,237.125 131.363,236.693 C128.635,236.261 126.774,233.699 127.206,230.972 C127.638,228.244 130.199,226.384 132.927,226.816 C135.654,227.248 137.515,229.809 137.083,232.536 z"/>
    <path d="M135.669,250.5 C135.669,253.261 133.431,255.5 130.669,255.5 C127.908,255.5 125.669,253.261 125.669,250.5 C125.669,247.738 127.908,245.5 130.669,245.5 C133.431,245.5 135.669,247.738 135.669,250.5 z"/>
    <path d="M137.083,268.463 C137.515,271.191 135.654,273.752 132.927,274.184 C130.199,274.616 127.638,272.755 127.206,270.027 C126.774,267.3 128.635,264.739 131.362,264.307 C134.09,263.875 136.651,265.736 137.083,268.463 z"/>
    <path d="M141.289,285.984 C142.143,288.611 140.706,291.431 138.079,292.285 C135.453,293.138 132.632,291.701 131.779,289.074 C130.926,286.448 132.363,283.627 134.989,282.774 C137.615,281.921 140.436,283.358 141.289,285.984 z"/>
    <path d="M148.185,302.632 C149.439,305.092 148.46,308.103 146,309.357 C143.539,310.61 140.529,309.632 139.275,307.172 C138.021,304.711 139,301.7 141.46,300.447 C143.92,299.193 146.931,300.171 148.185,302.632 z"/>
    <path d="M157.6,317.995 C159.223,320.229 158.728,323.356 156.494,324.979 C154.26,326.602 151.133,326.107 149.51,323.873 C147.887,321.639 148.382,318.512 150.616,316.889 C152.85,315.266 155.977,315.761 157.6,317.995 z"/>
    <path d="M169.302,331.697 C171.255,333.65 171.255,336.816 169.302,338.768 C167.35,340.721 164.184,340.721 162.231,338.768 C160.278,336.816 160.278,333.65 162.231,331.697 C164.184,329.744 167.35,329.744 169.302,331.697 z"/>
    <path d="M183.004,343.4 C185.238,345.023 185.733,348.149 184.11,350.384 C182.487,352.618 179.36,353.113 177.126,351.49 C174.892,349.867 174.397,346.74 176.02,344.506 C177.643,342.272 180.77,341.776 183.004,343.4 z"/>
    <path d="M198.368,352.814 C200.828,354.068 201.806,357.079 200.553,359.539 C199.299,362 196.288,362.978 193.828,361.724 C191.367,360.471 190.389,357.46 191.643,355 C192.896,352.539 195.907,351.561 198.368,352.814 z"/>
    <path d="M215.015,359.71 C217.641,360.563 219.078,363.384 218.225,366.01 C217.372,368.637 214.551,370.074 211.925,369.221 C209.298,368.367 207.861,365.547 208.714,362.92 C209.568,360.294 212.389,358.857 215.015,359.71 z"/>
    <path d="M232.536,363.917 C235.263,364.349 237.124,366.91 236.692,369.637 C236.26,372.365 233.699,374.225 230.972,373.793 C228.244,373.361 226.383,370.8 226.815,368.073 C227.247,365.345 229.809,363.485 232.536,363.917 z"/>
    <path d="M250.499,365.33 C253.261,365.33 255.499,367.569 255.499,370.33 C255.499,373.092 253.261,375.33 250.499,375.33 C247.738,375.33 245.499,373.092 245.499,370.33 C245.499,367.569 247.738,365.33 250.499,365.33 z"/>
    <path d="M268.463,363.917 C271.19,363.485 273.751,365.345 274.183,368.073 C274.615,370.8 272.755,373.362 270.027,373.794 C267.3,374.225 264.738,372.365 264.307,369.637 C263.875,366.91 265.735,364.349 268.463,363.917 z"/>
    <path d="M285.984,359.71 C288.61,358.857 291.431,360.294 292.284,362.92 C293.138,365.547 291.7,368.367 289.074,369.221 C286.448,370.074 283.627,368.637 282.774,366.011 C281.92,363.384 283.358,360.564 285.984,359.71 z"/>
    <path d="M302.631,352.815 C305.092,351.561 308.103,352.539 309.356,355 C310.61,357.46 309.632,360.471 307.171,361.725 C304.711,362.978 301.7,362 300.446,359.54 C299.193,357.079 300.171,354.068 302.631,352.815 z"/>
    <path d="M317.995,343.4 C320.229,341.777 323.356,342.272 324.979,344.506 C326.602,346.74 326.107,349.867 323.873,351.49 C321.639,353.113 318.512,352.618 316.889,350.384 C315.266,348.15 315.761,345.023 317.995,343.4 z"/>
    <path d="M331.697,331.698 C333.649,329.745 336.815,329.745 338.768,331.698 C340.72,333.65 340.72,336.816 338.768,338.769 C336.815,340.721 333.649,340.721 331.697,338.769 C329.744,336.816 329.744,333.65 331.697,331.698 z"/>
    <path d="M343.399,317.996 C345.022,315.762 348.149,315.267 350.383,316.89 C352.617,318.513 353.112,321.64 351.489,323.874 C349.866,326.108 346.739,326.603 344.505,324.98 C342.271,323.357 341.776,320.23 343.399,317.996 z"/>
    <path d="M352.814,302.632 C354.068,300.172 357.079,299.193 359.539,300.447 C362,301.701 362.978,304.712 361.724,307.172 C360.471,309.633 357.46,310.611 354.999,309.357 C352.539,308.103 351.56,305.093 352.814,302.632 z"/>
    <path d="M359.71,285.985 C360.563,283.359 363.384,281.921 366.01,282.775 C368.636,283.628 370.074,286.449 369.22,289.075 C368.367,291.701 365.546,293.139 362.92,292.285 C360.294,291.432 358.856,288.611 359.71,285.985 z"/>
    <path d="M363.916,268.464 C364.348,265.736 366.909,263.875 369.637,264.307 C372.364,264.739 374.225,267.301 373.793,270.028 C373.361,272.755 370.8,274.616 368.072,274.184 C365.345,273.752 363.484,271.191 363.916,268.464 z"/>
    <path d="M365.33,250.5 C365.33,247.739 367.569,245.5 370.33,245.5 C373.091,245.5 375.33,247.739 375.33,250.5 C375.33,253.262 373.091,255.5 370.33,255.5 C367.569,255.5 365.33,253.262 365.33,250.5 z"/>
    <path d="M363.916,232.537 C363.484,229.809 365.345,227.248 368.073,226.816 C370.8,226.384 373.361,228.245 373.793,230.973 C374.225,233.7 372.364,236.261 369.637,236.693 C366.91,237.125 364.348,235.264 363.916,232.537 z"/>
    <path d="M359.71,215.016 C358.857,212.39 360.294,209.569 362.92,208.715 C365.546,207.862 368.367,209.299 369.22,211.926 C370.074,214.552 368.637,217.373 366.01,218.226 C363.384,219.079 360.563,217.642 359.71,215.016 z"/>
    <path d="M352.814,198.368 C351.561,195.908 352.539,192.897 354.999,191.643 C357.46,190.39 360.471,191.368 361.724,193.828 C362.978,196.289 362,199.3 359.539,200.553 C357.079,201.807 354.068,200.829 352.814,198.368 z"/>
    <path d="M343.4,183.005 C341.776,180.771 342.272,177.644 344.506,176.021 C346.74,174.398 349.867,174.893 351.49,177.127 C353.113,179.361 352.618,182.488 350.384,184.111 C348.15,185.734 345.023,185.239 343.4,183.005 z"/>
    <path d="M331.697,169.303 C329.745,167.35 329.745,164.184 331.697,162.232 C333.65,160.279 336.816,160.279 338.768,162.232 C340.721,164.184 340.721,167.35 338.768,169.303 C336.816,171.256 333.65,171.256 331.697,169.303 z"/>
    <path d="M317.996,157.6 C315.761,155.977 315.266,152.851 316.889,150.616 C318.512,148.382 321.639,147.887 323.873,149.51 C326.107,151.133 326.603,154.26 324.98,156.494 C323.356,158.728 320.23,159.224 317.996,157.6 z"/>
    <path d="M302.632,148.186 C300.171,146.932 299.193,143.921 300.447,141.461 C301.7,139 304.711,138.022 307.172,139.275 C309.632,140.529 310.611,143.54 309.357,146 C308.103,148.461 305.092,149.439 302.632,148.186 z"/>
    <path d="M285.985,141.29 C283.358,140.437 281.921,137.616 282.774,134.99 C283.628,132.363 286.448,130.926 289.075,131.779 C291.701,132.633 293.138,135.453 292.285,138.08 C291.432,140.706 288.611,142.143 285.985,141.29 z"/>
    <path d="M268.463,137.083 C265.736,136.651 263.875,134.09 264.307,131.363 C264.739,128.635 267.3,126.775 270.028,127.207 C272.755,127.639 274.616,130.2 274.184,132.927 C273.752,135.655 271.191,137.515 268.463,137.083 z"/>
    <path d="M250.5,114.5 C248.291,114.5 246.5,112.709 246.5,110.5 C246.5,108.291 248.291,106.5 250.5,106.5 C252.709,106.5 254.5,108.291 254.5,110.5 C254.5,112.709 252.709,114.5 250.5,114.5 z"/>
    <path d="M232.748,115.663 C230.558,115.952 228.549,114.41 228.261,112.22 C227.972,110.03 229.514,108.02 231.704,107.732 C233.894,107.444 235.904,108.985 236.192,111.176 C236.48,113.366 234.939,115.375 232.748,115.663 z"/>
    <path d="M215.301,119.134 C213.167,119.706 210.973,118.439 210.402,116.306 C209.83,114.172 211.096,111.978 213.23,111.407 C215.364,110.835 217.557,112.101 218.129,114.235 C218.701,116.369 217.434,118.562 215.301,119.134 z"/>
    <path d="M198.455,124.852 C196.414,125.698 194.074,124.728 193.229,122.687 C192.383,120.646 193.353,118.307 195.394,117.461 C197.435,116.616 199.774,117.585 200.62,119.626 C201.465,121.667 200.496,124.007 198.455,124.852 z"/>
    <path d="M182.5,132.72 C180.587,133.825 178.14,133.169 177.036,131.256 C175.931,129.343 176.587,126.897 178.5,125.792 C180.413,124.688 182.859,125.343 183.964,127.256 C185.069,129.169 184.413,131.616 182.5,132.72 z"/>
    <path d="M167.708,142.604 C165.956,143.949 163.445,143.618 162.1,141.865 C160.755,140.113 161.086,137.602 162.838,136.257 C164.591,134.912 167.102,135.243 168.447,136.995 C169.792,138.748 169.461,141.259 167.708,142.604 z"/>
    <path d="M154.333,154.333 C152.771,155.895 150.239,155.895 148.677,154.333 C147.114,152.771 147.114,150.238 148.677,148.676 C150.239,147.114 152.771,147.114 154.333,148.676 C155.895,150.238 155.895,152.771 154.333,154.333 z"/>
    <path d="M142.604,167.708 C141.259,169.461 138.748,169.791 136.995,168.447 C135.243,167.102 134.912,164.591 136.257,162.838 C137.602,161.085 140.113,160.755 141.865,162.1 C143.618,163.445 143.949,165.956 142.604,167.708 z"/>
    <path d="M132.72,182.5 C131.616,184.413 129.169,185.068 127.256,183.964 C125.343,182.859 124.688,180.413 125.792,178.5 C126.897,176.587 129.343,175.931 131.256,177.036 C133.169,178.14 133.825,180.587 132.72,182.5 z"/>
    <path d="M124.852,198.455 C124.007,200.496 121.667,201.465 119.626,200.62 C117.585,199.774 116.616,197.434 117.461,195.393 C118.307,193.352 120.646,192.383 122.687,193.228 C124.728,194.074 125.698,196.414 124.852,198.455 z"/>
    <path d="M119.134,215.3 C118.562,217.434 116.369,218.7 114.235,218.129 C112.101,217.557 110.835,215.364 111.406,213.23 C111.978,211.096 114.172,209.83 116.305,210.401 C118.439,210.973 119.706,213.166 119.134,215.3 z"/>
    <path d="M115.663,232.748 C115.375,234.938 113.366,236.48 111.175,236.192 C108.985,235.903 107.443,233.894 107.732,231.704 C108.02,229.514 110.029,227.972 112.22,228.26 C114.41,228.549 115.952,230.558 115.663,232.748 z"/>
    <path d="M114.5,250.5 C114.5,252.709 112.709,254.5 110.5,254.5 C108.291,254.5 106.5,252.709 106.5,250.5 C106.5,248.291 108.291,246.5 110.5,246.5 C112.709,246.5 114.5,248.291 114.5,250.5 z"/>
    <path d="M115.663,268.251 C115.951,270.441 114.41,272.451 112.219,272.739 C110.029,273.027 108.02,271.486 107.732,269.295 C107.443,267.105 108.985,265.096 111.175,264.808 C113.365,264.519 115.375,266.061 115.663,268.251 z"/>
    <path d="M119.134,285.699 C119.705,287.833 118.439,290.026 116.305,290.598 C114.171,291.17 111.978,289.903 111.406,287.77 C110.835,285.636 112.101,283.442 114.235,282.871 C116.369,282.299 118.562,283.565 119.134,285.699 z"/>
    <path d="M124.852,302.545 C125.697,304.586 124.728,306.925 122.687,307.771 C120.646,308.616 118.306,307.647 117.461,305.606 C116.616,303.565 117.585,301.225 119.626,300.38 C121.667,299.534 124.007,300.504 124.852,302.545 z"/>
    <path d="M132.72,318.5 C133.825,320.413 133.169,322.859 131.256,323.964 C129.343,325.068 126.896,324.413 125.792,322.5 C124.687,320.587 125.343,318.14 127.256,317.036 C129.169,315.931 131.615,316.587 132.72,318.5 z"/>
    <path d="M142.603,333.291 C143.948,335.044 143.618,337.555 141.865,338.9 C140.112,340.245 137.601,339.914 136.257,338.161 C134.912,336.409 135.242,333.898 136.995,332.553 C138.748,331.208 141.259,331.539 142.603,333.291 z"/>
    <path d="M154.333,346.666 C155.895,348.228 155.895,350.761 154.333,352.323 C152.771,353.885 150.238,353.885 148.676,352.323 C147.114,350.761 147.114,348.228 148.676,346.666 C150.238,345.104 152.771,345.104 154.333,346.666 z"/>
    <path d="M167.708,358.396 C169.46,359.741 169.791,362.252 168.446,364.004 C167.101,365.757 164.59,366.087 162.838,364.743 C161.085,363.398 160.755,360.887 162.099,359.134 C163.444,357.382 165.955,357.051 167.708,358.396 z"/>
    <path d="M182.499,368.279 C184.413,369.384 185.068,371.83 183.964,373.743 C182.859,375.657 180.413,376.312 178.499,375.207 C176.586,374.103 175.931,371.657 177.035,369.743 C178.14,367.83 180.586,367.175 182.499,368.279 z"/>
    <path d="M198.454,376.147 C200.495,376.993 201.465,379.333 200.619,381.374 C199.774,383.415 197.434,384.384 195.393,383.539 C193.352,382.693 192.383,380.353 193.228,378.312 C194.074,376.271 196.413,375.302 198.454,376.147 z"/>
    <path d="M215.3,381.866 C217.434,382.438 218.7,384.631 218.128,386.765 C217.557,388.899 215.363,390.165 213.229,389.593 C211.096,389.021 209.829,386.828 210.401,384.694 C210.973,382.56 213.166,381.294 215.3,381.866 z"/>
    <path d="M232.748,385.336 C234.938,385.625 236.48,387.634 236.191,389.824 C235.903,392.015 233.894,393.556 231.704,393.268 C229.513,392.98 227.972,390.97 228.26,388.78 C228.548,386.59 230.558,385.048 232.748,385.336 z"/>
    <path d="M250.499,386.5 C252.708,386.5 254.499,388.291 254.499,390.5 C254.499,392.709 252.708,394.5 250.499,394.5 C248.29,394.5 246.499,392.709 246.499,390.5 C246.499,388.291 248.29,386.5 250.499,386.5 z"/>
    <path d="M268.251,385.337 C270.441,385.048 272.45,386.59 272.739,388.78 C273.027,390.97 271.485,392.98 269.295,393.268 C267.105,393.556 265.096,392.015 264.807,389.824 C264.519,387.634 266.061,385.625 268.251,385.337 z"/>
    <path d="M285.699,381.866 C287.833,381.294 290.026,382.561 290.598,384.694 C291.169,386.828 289.903,389.022 287.769,389.593 C285.635,390.165 283.442,388.899 282.87,386.765 C282.299,384.631 283.565,382.438 285.699,381.866 z"/>
    <path d="M302.544,376.148 C304.585,375.302 306.925,376.272 307.771,378.313 C308.616,380.354 307.647,382.693 305.606,383.539 C303.565,384.384 301.225,383.415 300.38,381.374 C299.534,379.333 300.503,376.993 302.544,376.148 z"/>
    <path d="M318.499,368.28 C320.413,367.175 322.859,367.831 323.963,369.744 C325.068,371.657 324.413,374.103 322.499,375.208 C320.586,376.312 318.14,375.657 317.035,373.744 C315.931,371.831 316.586,369.384 318.499,368.28 z"/>
    <path d="M333.291,358.396 C335.044,357.051 337.555,357.382 338.899,359.135 C340.244,360.887 339.914,363.398 338.161,364.743 C336.408,366.088 333.897,365.757 332.553,364.005 C331.208,362.252 331.538,359.741 333.291,358.396 z"/>
    <path d="M346.666,346.667 C348.228,345.105 350.761,345.105 352.323,346.667 C353.885,348.229 353.885,350.762 352.323,352.324 C350.761,353.886 348.228,353.886 346.666,352.324 C345.104,350.762 345.104,348.229 346.666,346.667 z"/>
    <path d="M358.396,333.292 C359.74,331.539 362.251,331.209 364.004,332.553 C365.757,333.898 366.087,336.409 364.742,338.162 C363.398,339.915 360.887,340.245 359.134,338.9 C357.381,337.555 357.051,335.044 358.396,333.292 z"/>
    <path d="M368.279,318.5 C369.384,316.587 371.83,315.932 373.743,317.036 C375.656,318.141 376.312,320.587 375.207,322.5 C374.103,324.413 371.656,325.069 369.743,323.964 C367.83,322.86 367.174,320.413 368.279,318.5 z"/>
    <path d="M376.147,302.545 C376.993,300.504 379.332,299.535 381.373,300.38 C383.414,301.226 384.384,303.566 383.538,305.607 C382.693,307.648 380.353,308.617 378.312,307.772 C376.271,306.926 375.302,304.586 376.147,302.545 z"/>
    <path d="M381.866,285.7 C382.437,283.566 384.631,282.3 386.764,282.871 C388.898,283.443 390.165,285.636 389.593,287.77 C389.021,289.904 386.828,291.17 384.694,290.599 C382.56,290.027 381.294,287.834 381.866,285.7 z"/>
    <path d="M385.336,268.252 C385.624,266.062 387.634,264.52 389.824,264.808 C392.014,265.097 393.556,267.106 393.268,269.296 C392.979,271.486 390.97,273.028 388.78,272.74 C386.59,272.451 385.048,270.442 385.336,268.252 z"/>
    <path d="M386.5,250.5 C386.5,248.291 388.291,246.5 390.5,246.5 C392.709,246.5 394.5,248.291 394.5,250.5 C394.5,252.709 392.709,254.5 390.5,254.5 C388.291,254.5 386.5,252.709 386.5,250.5 z"/>
    <path d="M385.336,232.749 C385.048,230.559 386.59,228.549 388.78,228.261 C390.97,227.973 392.979,229.514 393.268,231.705 C393.556,233.895 392.014,235.904 389.824,236.192 C387.634,236.481 385.625,234.939 385.336,232.749 z"/>
    <path d="M381.866,215.301 C381.294,213.167 382.56,210.974 384.694,210.402 C386.828,209.83 389.021,211.097 389.593,213.23 C390.165,215.364 388.899,217.558 386.765,218.129 C384.631,218.701 382.437,217.435 381.866,215.301 z"/>
    <path d="M376.147,198.455 C375.302,196.414 376.271,194.075 378.312,193.229 C380.353,192.384 382.693,193.353 383.538,195.394 C384.384,197.435 383.415,199.775 381.374,200.62 C379.333,201.466 376.993,200.496 376.147,198.455 z"/>
    <path d="M368.279,182.5 C367.175,180.587 367.83,178.141 369.743,177.036 C371.657,175.932 374.103,176.587 375.208,178.5 C376.312,180.413 375.657,182.86 373.743,183.964 C371.83,185.069 369.384,184.413 368.279,182.5 z"/>
    <path d="M358.396,167.709 C357.051,165.956 357.382,163.445 359.134,162.1 C360.887,160.755 363.398,161.086 364.743,162.839 C366.088,164.591 365.757,167.102 364.004,168.447 C362.252,169.792 359.741,169.461 358.396,167.709 z"/>
    <path d="M346.666,154.334 C345.104,152.772 345.104,150.239 346.666,148.677 C348.229,147.115 350.761,147.115 352.323,148.677 C353.885,150.239 353.885,152.772 352.323,154.334 C350.761,155.896 348.229,155.896 346.666,154.334 z"/>
    <path d="M333.292,142.604 C331.539,141.259 331.208,138.748 332.553,136.996 C333.898,135.243 336.409,134.912 338.162,136.257 C339.914,137.602 340.245,140.113 338.9,141.866 C337.555,143.618 335.044,143.949 333.292,142.604 z"/>
    <path d="M318.5,132.721 C316.587,131.616 315.931,129.17 317.036,127.257 C318.14,125.343 320.587,124.688 322.5,125.793 C324.413,126.897 325.069,129.343 323.964,131.257 C322.859,133.17 320.413,133.825 318.5,132.721 z"/>
    <path d="M302.545,124.853 C300.504,124.007 299.535,121.667 300.38,119.626 C301.226,117.585 303.565,116.616 305.606,117.461 C307.647,118.307 308.617,120.647 307.771,122.688 C306.926,124.729 304.586,125.698 302.545,124.853 z"/>
    <path d="M285.699,119.134 C283.566,118.562 282.299,116.369 282.871,114.235 C283.443,112.101 285.636,110.835 287.77,111.407 C289.904,111.979 291.17,114.172 290.598,116.306 C290.027,118.44 287.833,119.706 285.699,119.134 z"/>
    <path d="M268.252,115.664 C266.061,115.375 264.52,113.366 264.808,111.176 C265.096,108.985 267.106,107.444 269.296,107.732 C271.486,108.02 273.028,110.03 272.739,112.22 C272.451,114.41 270.442,115.952 268.252,115.664 z"/>
    <path d="M250.5,93.5 C248.843,93.5 247.5,92.157 247.5,90.5 C247.5,88.843 248.843,87.5 250.5,87.5 C252.157,87.5 253.5,88.843 253.5,90.5 C253.5,92.157 252.157,93.5 250.5,93.5 z"/>
    <path d="M230.415,94.79 C228.772,95.002 227.268,93.842 227.056,92.198 C226.844,90.555 228.004,89.051 229.647,88.839 C231.291,88.627 232.795,89.788 233.007,91.431 C233.218,93.074 232.058,94.578 230.415,94.79 z"/>
    <path d="M210.66,98.639 C209.057,99.059 207.417,98.101 206.997,96.498 C206.576,94.896 207.535,93.256 209.137,92.835 C210.74,92.415 212.38,93.373 212.801,94.976 C213.221,96.578 212.263,98.218 210.66,98.639 z"/>
    <path d="M191.56,104.983 C190.024,105.605 188.275,104.865 187.653,103.329 C187.031,101.793 187.772,100.044 189.307,99.422 C190.843,98.8 192.592,99.541 193.214,101.077 C193.836,102.612 193.095,104.361 191.56,104.983 z"/>
    <path d="M173.428,113.719 C171.985,114.533 170.155,114.022 169.342,112.578 C168.528,111.135 169.039,109.305 170.483,108.492 C171.926,107.679 173.756,108.189 174.569,109.633 C175.382,111.076 174.872,112.906 173.428,113.719 z"/>
    <path d="M156.563,124.703 C155.235,125.694 153.356,125.422 152.364,124.094 C151.373,122.767 151.645,120.887 152.973,119.895 C154.301,118.904 156.18,119.177 157.172,120.504 C158.163,121.832 157.891,123.712 156.563,124.703 z"/>
    <path d="M141.242,137.754 C140.052,138.907 138.153,138.877 136.999,137.687 C135.846,136.497 135.876,134.598 137.066,133.445 C138.256,132.292 140.155,132.322 141.308,133.512 C142.461,134.702 142.431,136.601 141.242,137.754 z"/>
    <path d="M127.716,152.658 C126.683,153.954 124.796,154.167 123.5,153.134 C122.204,152.102 121.991,150.214 123.023,148.919 C124.056,147.623 125.943,147.409 127.239,148.442 C128.535,149.475 128.748,151.362 127.716,152.658 z"/>
    <path d="M116.208,169.169 C115.349,170.587 113.505,171.04 112.087,170.181 C110.67,169.323 110.217,167.479 111.075,166.061 C111.934,164.644 113.778,164.191 115.196,165.049 C116.613,165.908 117.066,167.752 116.208,169.169 z"/>
    <path d="M106.906,187.018 C106.237,188.533 104.465,189.218 102.95,188.549 C101.434,187.879 100.749,186.107 101.419,184.592 C102.089,183.076 103.86,182.391 105.376,183.061 C106.891,183.731 107.576,185.502 106.906,187.018 z"/>
    <path d="M99.965,205.909 C99.494,207.498 97.825,208.404 96.237,207.934 C94.648,207.463 93.742,205.794 94.212,204.205 C94.683,202.617 96.352,201.71 97.941,202.181 C99.529,202.651 100.436,204.321 99.965,205.909 z"/>
    <path d="M95.497,225.534 C95.234,227.169 93.694,228.282 92.059,228.018 C90.423,227.755 89.31,226.215 89.574,224.579 C89.837,222.944 91.377,221.831 93.013,222.095 C94.648,222.358 95.761,223.898 95.497,225.534 z"/>
    <path d="M93.577,245.568 C93.525,247.224 92.14,248.524 90.484,248.472 C88.828,248.42 87.528,247.036 87.58,245.38 C87.632,243.724 89.017,242.423 90.673,242.475 C92.329,242.527 93.629,243.912 93.577,245.568 z"/>
    <path d="M94.236,265.684 C94.396,267.333 93.189,268.8 91.54,268.96 C89.891,269.12 88.424,267.913 88.264,266.264 C88.104,264.615 89.31,263.148 90.96,262.988 C92.609,262.828 94.075,264.035 94.236,265.684 z"/>
    <path d="M97.462,285.55 C97.832,287.165 96.823,288.774 95.208,289.144 C93.592,289.514 91.983,288.504 91.614,286.889 C91.244,285.274 92.253,283.665 93.868,283.295 C95.483,282.926 97.092,283.935 97.462,285.55 z"/>
    <path d="M103.203,304.84 C103.777,306.395 102.982,308.12 101.427,308.693 C99.873,309.266 98.148,308.471 97.574,306.917 C97.001,305.362 97.796,303.637 99.351,303.064 C100.905,302.49 102.63,303.286 103.203,304.84 z"/>
    <path d="M111.366,323.237 C112.133,324.705 111.565,326.518 110.097,327.286 C108.629,328.053 106.816,327.485 106.048,326.017 C105.281,324.549 105.849,322.736 107.317,321.968 C108.785,321.201 110.598,321.769 111.366,323.237 z"/>
    <path d="M121.814,340.439 C122.763,341.797 122.432,343.667 121.074,344.616 C119.716,345.566 117.845,345.234 116.896,343.876 C115.947,342.518 116.278,340.648 117.637,339.699 C118.995,338.749 120.865,339.081 121.814,340.439 z"/>
    <path d="M134.377,356.163 C135.492,357.388 135.403,359.286 134.177,360.401 C132.952,361.516 131.055,361.426 129.94,360.201 C128.824,358.975 128.914,357.078 130.139,355.963 C131.365,354.848 133.262,354.937 134.377,356.163 z"/>
    <path d="M148.849,370.15 C150.112,371.223 150.266,373.116 149.193,374.379 C148.12,375.641 146.227,375.795 144.964,374.723 C143.702,373.65 143.548,371.757 144.62,370.494 C145.693,369.231 147.586,369.077 148.849,370.15 z"/>
    <path d="M164.991,382.171 C166.381,383.073 166.776,384.931 165.873,386.321 C164.971,387.711 163.113,388.106 161.723,387.203 C160.334,386.301 159.939,384.443 160.841,383.053 C161.744,381.664 163.602,381.269 164.991,382.171 z"/>
    <path d="M182.538,392.028 C184.032,392.746 184.661,394.538 183.944,396.031 C183.227,397.525 181.435,398.154 179.941,397.437 C178.448,396.72 177.818,394.928 178.535,393.434 C179.253,391.94 181.045,391.311 182.538,392.028 z"/>
    <path d="M201.203,399.56 C202.776,400.08 203.629,401.777 203.109,403.35 C202.589,404.923 200.892,405.777 199.319,405.256 C197.746,404.736 196.892,403.039 197.412,401.466 C197.933,399.893 199.63,399.039 201.203,399.56 z"/>
    <path d="M220.677,404.642 C222.304,404.956 223.367,406.53 223.052,408.157 C222.738,409.783 221.164,410.847 219.537,410.532 C217.91,410.218 216.847,408.644 217.162,407.017 C217.476,405.39 219.05,404.327 220.677,404.642 z"/>
    <path d="M240.641,407.19 C242.295,407.294 243.551,408.719 243.447,410.373 C243.343,412.026 241.918,413.282 240.265,413.178 C238.611,413.074 237.355,411.649 237.459,409.996 C237.563,408.342 238.988,407.086 240.641,407.19 z"/>
    <path d="M260.768,407.164 C262.421,407.056 263.849,408.308 263.958,409.961 C264.066,411.615 262.813,413.043 261.16,413.151 C259.507,413.259 258.079,412.007 257.97,410.354 C257.862,408.7 259.114,407.272 260.768,407.164 z"/>
    <path d="M280.725,404.563 C282.351,404.244 283.928,405.303 284.247,406.929 C284.566,408.555 283.506,410.132 281.881,410.451 C280.255,410.77 278.678,409.71 278.359,408.084 C278.04,406.459 279.1,404.882 280.725,404.563 z"/>
    <path d="M300.186,399.43 C301.758,398.906 303.457,399.755 303.982,401.327 C304.506,402.898 303.657,404.598 302.085,405.122 C300.514,405.646 298.814,404.797 298.29,403.226 C297.766,401.654 298.615,399.955 300.186,399.43 z"/>
    <path d="M318.831,391.85 C320.322,391.129 322.116,391.754 322.837,393.245 C323.559,394.737 322.934,396.531 321.442,397.252 C319.951,397.973 318.157,397.348 317.436,395.857 C316.714,394.365 317.339,392.571 318.831,391.85 z"/>
    <path d="M336.352,381.947 C337.739,381.041 339.598,381.431 340.505,382.818 C341.411,384.205 341.02,386.065 339.633,386.971 C338.246,387.877 336.387,387.486 335.481,386.099 C334.575,384.712 334.965,382.853 336.352,381.947 z"/>
    <path d="M352.463,369.884 C353.723,368.808 355.616,368.957 356.692,370.217 C357.769,371.477 357.619,373.37 356.36,374.446 C355.1,375.522 353.206,375.373 352.13,374.113 C351.054,372.854 351.203,370.96 352.463,369.884 z"/>
    <path d="M366.898,355.859 C368.01,354.63 369.907,354.536 371.135,355.648 C372.364,356.76 372.458,358.657 371.346,359.885 C370.234,361.114 368.337,361.208 367.109,360.096 C365.88,358.984 365.786,357.087 366.898,355.859 z"/>
    <path d="M379.42,340.102 C380.366,338.742 382.235,338.405 383.596,339.351 C384.956,340.296 385.293,342.166 384.347,343.526 C383.401,344.887 381.532,345.223 380.171,344.278 C378.811,343.332 378.474,341.463 379.42,340.102 z"/>
    <path d="M389.824,322.873 C390.587,321.403 392.398,320.83 393.869,321.594 C395.339,322.358 395.912,324.169 395.148,325.639 C394.384,327.109 392.573,327.682 391.103,326.918 C389.633,326.154 389.06,324.343 389.824,322.873 z"/>
    <path d="M397.937,304.455 C398.507,302.899 400.23,302.099 401.786,302.668 C403.342,303.238 404.141,304.961 403.572,306.517 C403.003,308.073 401.28,308.872 399.724,308.303 C398.168,307.734 397.368,306.011 397.937,304.455 z"/>
    <path d="M403.628,285.15 C403.994,283.534 405.601,282.52 407.217,282.886 C408.833,283.251 409.846,284.858 409.48,286.474 C409.115,288.09 407.508,289.103 405.892,288.738 C404.276,288.372 403.263,286.766 403.628,285.15 z"/>
    <path d="M406.803,265.275 C406.959,263.626 408.422,262.415 410.072,262.571 C411.721,262.727 412.932,264.19 412.776,265.84 C412.62,267.489 411.157,268.7 409.507,268.544 C407.858,268.388 406.647,266.925 406.803,265.275 z"/>
    <path d="M407.409,245.158 C407.352,243.502 408.649,242.114 410.305,242.057 C411.961,242.001 413.349,243.298 413.405,244.954 C413.462,246.609 412.165,247.998 410.509,248.054 C408.853,248.11 407.465,246.814 407.409,245.158 z"/>
    <path d="M405.436,225.128 C405.168,223.493 406.277,221.951 407.912,221.683 C409.547,221.415 411.089,222.523 411.357,224.159 C411.625,225.794 410.517,227.336 408.881,227.604 C407.246,227.872 405.704,226.763 405.436,225.128 z"/>
    <path d="M400.917,205.516 C400.442,203.928 401.344,202.257 402.932,201.782 C404.519,201.307 406.191,202.209 406.666,203.796 C407.14,205.384 406.238,207.056 404.651,207.53 C403.064,208.005 401.392,207.103 400.917,205.516 z"/>
    <path d="M393.926,186.642 C393.252,185.129 393.933,183.355 395.447,182.681 C396.96,182.008 398.734,182.688 399.408,184.202 C400.081,185.715 399.401,187.489 397.887,188.163 C396.374,188.837 394.6,188.156 393.926,186.642 z"/>
    <path d="M384.578,168.818 C383.716,167.403 384.165,165.558 385.58,164.696 C386.995,163.834 388.84,164.282 389.702,165.697 C390.564,167.112 390.116,168.958 388.701,169.82 C387.286,170.682 385.44,170.233 384.578,168.818 z"/>
    <path d="M373.027,152.337 C371.991,151.044 372.2,149.156 373.493,148.12 C374.786,147.084 376.674,147.292 377.71,148.585 C378.746,149.878 378.537,151.766 377.244,152.802 C375.951,153.838 374.063,153.63 373.027,152.337 z"/>
    <path d="M359.462,137.468 C358.27,136.319 358.235,134.419 359.385,133.227 C360.535,132.034 362.434,131.999 363.627,133.149 C364.819,134.299 364.854,136.198 363.704,137.391 C362.554,138.584 360.655,138.618 359.462,137.468 z"/>
    <path d="M344.107,124.458 C342.777,123.47 342.499,121.591 343.487,120.26 C344.475,118.93 346.354,118.653 347.684,119.641 C349.014,120.629 349.292,122.508 348.304,123.838 C347.316,125.168 345.437,125.445 344.107,124.458 z"/>
    <path d="M327.213,113.518 C325.768,112.709 325.252,110.88 326.061,109.435 C326.871,107.989 328.699,107.474 330.145,108.283 C331.59,109.093 332.106,110.921 331.296,112.366 C330.487,113.812 328.659,114.328 327.213,113.518 z"/>
    <path d="M309.059,104.83 C307.521,104.212 306.776,102.464 307.394,100.927 C308.012,99.39 309.759,98.645 311.297,99.263 C312.834,99.881 313.579,101.628 312.961,103.165 C312.343,104.702 310.596,105.448 309.059,104.83 z"/>
    <path d="M289.942,98.535 C288.338,98.119 287.375,96.481 287.792,94.878 C288.208,93.274 289.845,92.311 291.449,92.728 C293.053,93.144 294.016,94.781 293.599,96.385 C293.183,97.989 291.546,98.951 289.942,98.535 z"/>
    <path d="M270.177,94.738 C268.533,94.53 267.369,93.029 267.576,91.386 C267.784,89.742 269.285,88.578 270.929,88.785 C272.573,88.993 273.737,90.494 273.529,92.138 C273.322,93.781 271.821,94.946 270.177,94.738 z"/>
    <path d="M250.5,72.5 C249.395,72.5 248.5,71.605 248.5,70.5 C248.5,69.395 249.395,68.5 250.5,68.5 C251.605,68.5 252.5,69.395 252.5,70.5 C252.5,71.605 251.605,72.5 250.5,72.5 z"/>
    <path d="M228.622,73.85 C227.526,73.985 226.527,73.207 226.392,72.111 C226.256,71.014 227.034,70.016 228.131,69.88 C229.227,69.744 230.226,70.523 230.361,71.619 C230.497,72.715 229.718,73.714 228.622,73.85 z"/>
    <path d="M207.076,77.878 C206.005,78.147 204.918,77.497 204.649,76.426 C204.379,75.355 205.029,74.268 206.1,73.999 C207.172,73.729 208.258,74.379 208.528,75.45 C208.797,76.522 208.147,77.608 207.076,77.878 z"/>
    <path d="M186.189,84.524 C185.159,84.923 184,84.411 183.601,83.382 C183.202,82.352 183.714,81.193 184.744,80.794 C185.773,80.395 186.932,80.906 187.331,81.936 C187.73,82.966 187.219,84.125 186.189,84.524 z"/>
    <path d="M166.276,93.687 C165.303,94.209 164.091,93.844 163.568,92.871 C163.046,91.898 163.411,90.685 164.384,90.163 C165.357,89.64 166.569,90.005 167.092,90.978 C167.615,91.951 167.25,93.164 166.276,93.687 z"/>
    <path d="M147.641,105.227 C146.74,105.866 145.492,105.652 144.853,104.751 C144.215,103.849 144.428,102.601 145.33,101.963 C146.231,101.325 147.48,101.538 148.118,102.439 C148.756,103.341 148.543,104.589 147.641,105.227 z"/>
    <path d="M130.566,118.971 C129.75,119.715 128.485,119.657 127.74,118.841 C126.996,118.025 127.055,116.76 127.871,116.015 C128.687,115.271 129.952,115.329 130.696,116.146 C131.44,116.962 131.382,118.227 130.566,118.971 z"/>
    <path d="M115.309,134.709 C114.591,135.548 113.328,135.646 112.489,134.927 C111.65,134.209 111.553,132.946 112.271,132.107 C112.99,131.268 114.252,131.171 115.091,131.889 C115.93,132.608 116.028,133.87 115.309,134.709 z"/>
    <path d="M102.102,152.203 C101.493,153.124 100.252,153.376 99.331,152.766 C98.41,152.156 98.158,150.915 98.768,149.994 C99.378,149.073 100.619,148.821 101.54,149.431 C102.46,150.041 102.712,151.282 102.102,152.203 z"/>
    <path d="M91.146,171.188 C90.654,172.177 89.453,172.579 88.464,172.087 C87.476,171.595 87.073,170.394 87.565,169.405 C88.057,168.417 89.258,168.014 90.247,168.506 C91.236,168.998 91.638,170.199 91.146,171.188 z"/>
    <path d="M82.606,191.375 C82.239,192.417 81.097,192.964 80.055,192.597 C79.014,192.23 78.466,191.088 78.833,190.046 C79.2,189.005 80.342,188.457 81.384,188.824 C82.426,189.191 82.973,190.333 82.606,191.375 z"/>
    <path d="M76.612,212.459 C76.376,213.538 75.31,214.221 74.231,213.985 C73.152,213.749 72.469,212.683 72.705,211.604 C72.941,210.525 74.007,209.842 75.086,210.078 C76.165,210.314 76.848,211.38 76.612,212.459 z"/>
    <path d="M73.255,234.12 C73.153,235.219 72.179,236.029 71.079,235.927 C69.98,235.825 69.17,234.851 69.272,233.752 C69.374,232.652 70.348,231.842 71.448,231.944 C72.547,232.046 73.357,233.02 73.255,234.12 z"/>
    <path d="M72.586,256.029 C72.62,257.133 71.753,258.056 70.649,258.09 C69.545,258.124 68.622,257.257 68.588,256.153 C68.553,255.049 69.42,254.126 70.524,254.092 C71.628,254.057 72.551,254.925 72.586,256.029 z"/>
    <path d="M74.614,277.854 C74.784,278.945 74.037,279.968 72.945,280.138 C71.854,280.307 70.831,279.56 70.662,278.469 C70.492,277.377 71.239,276.355 72.33,276.185 C73.422,276.015 74.444,276.763 74.614,277.854 z"/>
    <path d="M79.31,299.264 C79.612,300.327 78.996,301.433 77.934,301.736 C76.872,302.038 75.765,301.423 75.463,300.36 C75.16,299.298 75.776,298.191 76.838,297.889 C77.901,297.586 79.007,298.202 79.31,299.264 z"/>
    <path d="M86.601,319.935 C87.032,320.952 86.557,322.126 85.54,322.557 C84.523,322.988 83.349,322.513 82.918,321.496 C82.487,320.479 82.962,319.305 83.979,318.874 C84.997,318.443 86.17,318.918 86.601,319.935 z"/>
    <path d="M96.378,339.553 C96.931,340.51 96.603,341.733 95.647,342.286 C94.691,342.838 93.467,342.511 92.915,341.555 C92.362,340.598 92.689,339.375 93.646,338.822 C94.602,338.27 95.825,338.597 96.378,339.553 z"/>
    <path d="M108.492,357.821 C109.158,358.702 108.984,359.957 108.102,360.623 C107.221,361.289 105.967,361.114 105.301,360.233 C104.635,359.352 104.809,358.097 105.691,357.431 C106.572,356.765 107.826,356.94 108.492,357.821 z"/>
    <path d="M122.759,374.461 C123.529,375.254 123.51,376.52 122.717,377.29 C121.924,378.059 120.658,378.04 119.889,377.247 C119.12,376.454 119.139,375.188 119.931,374.419 C120.724,373.65 121.99,373.669 122.759,374.461 z"/>
    <path d="M138.964,389.222 C139.825,389.914 139.962,391.173 139.269,392.034 C138.577,392.895 137.318,393.031 136.458,392.339 C135.597,391.647 135.46,390.388 136.152,389.527 C136.844,388.667 138.103,388.53 138.964,389.222 z"/>
    <path d="M156.86,401.879 C157.799,402.46 158.09,403.692 157.508,404.632 C156.927,405.571 155.695,405.862 154.755,405.281 C153.816,404.7 153.526,403.467 154.107,402.528 C154.688,401.588 155.92,401.298 156.86,401.879 z"/>
    <path d="M176.175,412.24 C177.179,412.701 177.619,413.889 177.158,414.893 C176.696,415.896 175.509,416.336 174.505,415.875 C173.502,415.414 173.062,414.226 173.523,413.222 C173.984,412.219 175.172,411.779 176.175,412.24 z"/>
    <path d="M196.618,420.149 C197.671,420.483 198.253,421.608 197.919,422.661 C197.585,423.713 196.46,424.296 195.407,423.961 C194.355,423.627 193.772,422.503 194.107,421.45 C194.441,420.397 195.566,419.815 196.618,420.149 z"/>
    <path d="M217.878,425.485 C218.964,425.688 219.68,426.732 219.478,427.818 C219.275,428.904 218.231,429.62 217.145,429.417 C216.059,429.215 215.343,428.171 215.545,427.085 C215.748,425.999 216.792,425.283 217.878,425.485 z"/>
    <path d="M239.633,428.168 C240.735,428.235 241.574,429.184 241.507,430.286 C241.439,431.389 240.491,432.228 239.388,432.161 C238.286,432.093 237.447,431.145 237.514,430.042 C237.582,428.94 238.53,428.101 239.633,428.168 z"/>
    <path d="M261.552,428.157 C262.654,428.088 263.604,428.926 263.672,430.029 C263.741,431.131 262.903,432.08 261.8,432.149 C260.698,432.217 259.749,431.379 259.68,430.277 C259.611,429.174 260.45,428.225 261.552,428.157 z"/>
    <path d="M283.304,425.451 C284.389,425.248 285.434,425.963 285.638,427.048 C285.842,428.134 285.127,429.179 284.041,429.383 C282.955,429.586 281.91,428.871 281.707,427.785 C281.503,426.7 282.218,425.655 283.304,425.451 z"/>
    <path d="M304.558,420.093 C305.61,419.757 306.735,420.339 307.071,421.391 C307.406,422.443 306.825,423.568 305.773,423.904 C304.72,424.239 303.595,423.658 303.26,422.606 C302.924,421.553 303.506,420.428 304.558,420.093 z"/>
    <path d="M324.993,412.163 C325.996,411.7 327.184,412.139 327.646,413.142 C328.108,414.145 327.67,415.333 326.667,415.796 C325.663,416.258 324.475,415.819 324.013,414.816 C323.551,413.813 323.989,412.625 324.993,412.163 z"/>
    <path d="M344.297,401.781 C345.236,401.199 346.469,401.488 347.051,402.427 C347.633,403.366 347.344,404.599 346.405,405.181 C345.466,405.763 344.234,405.474 343.652,404.535 C343.07,403.596 343.359,402.363 344.297,401.781 z"/>
    <path d="M362.18,389.106 C363.04,388.413 364.299,388.548 364.992,389.408 C365.685,390.268 365.55,391.527 364.69,392.22 C363.83,392.913 362.571,392.778 361.878,391.918 C361.184,391.058 361.32,389.799 362.18,389.106 z"/>
    <path d="M378.369,374.328 C379.137,373.535 380.404,373.514 381.197,374.283 C381.991,375.051 382.011,376.317 381.243,377.111 C380.474,377.904 379.208,377.925 378.414,377.156 C377.621,376.388 377.601,375.122 378.369,374.328 z"/>
    <path d="M392.619,357.673 C393.284,356.791 394.538,356.615 395.42,357.28 C396.302,357.945 396.478,359.2 395.813,360.081 C395.148,360.963 393.894,361.139 393.012,360.474 C392.13,359.809 391.954,358.555 392.619,357.673 z"/>
    <path d="M404.714,339.393 C405.266,338.436 406.489,338.107 407.446,338.659 C408.403,339.21 408.731,340.433 408.18,341.39 C407.628,342.347 406.405,342.676 405.448,342.124 C404.491,341.573 404.162,340.35 404.714,339.393 z"/>
    <path d="M414.47,319.764 C414.9,318.747 416.074,318.271 417.091,318.7 C418.109,319.13 418.585,320.303 418.155,321.321 C417.725,322.339 416.552,322.815 415.535,322.385 C414.517,321.955 414.041,320.782 414.47,319.764 z"/>
    <path d="M421.74,299.086 C422.042,298.023 423.148,297.406 424.21,297.708 C425.273,298.009 425.89,299.115 425.589,300.178 C425.287,301.24 424.181,301.857 423.119,301.556 C422.056,301.254 421.439,300.149 421.74,299.086 z"/>
    <path d="M426.414,277.671 C426.582,276.579 427.604,275.831 428.696,275.999 C429.787,276.168 430.535,277.19 430.367,278.281 C430.198,279.373 429.177,280.121 428.085,279.952 C426.993,279.784 426.245,278.762 426.414,277.671 z"/>
    <path d="M428.419,255.843 C428.453,254.739 429.375,253.871 430.479,253.904 C431.583,253.937 432.451,254.859 432.418,255.963 C432.385,257.067 431.463,257.935 430.359,257.902 C429.254,257.869 428.386,256.947 428.419,255.843 z"/>
    <path d="M427.727,233.935 C427.624,232.835 428.433,231.86 429.532,231.757 C430.632,231.655 431.607,232.463 431.71,233.563 C431.813,234.662 431.004,235.637 429.905,235.74 C428.805,235.843 427.83,235.035 427.727,233.935 z"/>
    <path d="M424.347,212.278 C424.11,211.199 424.793,210.132 425.871,209.895 C426.95,209.658 428.017,210.34 428.254,211.419 C428.491,212.497 427.809,213.564 426.73,213.801 C425.651,214.039 424.585,213.356 424.347,212.278 z"/>
    <path d="M418.331,191.2 C417.964,190.159 418.509,189.016 419.551,188.648 C420.592,188.28 421.735,188.826 422.103,189.867 C422.471,190.909 421.925,192.051 420.884,192.419 C419.842,192.787 418.699,192.241 418.331,191.2 z"/>
    <path d="M409.771,171.022 C409.277,170.033 409.679,168.832 410.667,168.339 C411.655,167.846 412.856,168.247 413.35,169.236 C413.843,170.224 413.441,171.425 412.453,171.918 C411.465,172.411 410.264,172.01 409.771,171.022 z"/>
    <path d="M398.794,152.049 C398.183,151.128 398.434,149.887 399.354,149.276 C400.275,148.665 401.516,148.916 402.127,149.836 C402.738,150.756 402.487,151.998 401.567,152.609 C400.647,153.219 399.405,152.969 398.794,152.049 z"/>
    <path d="M385.569,134.568 C384.85,133.73 384.946,132.467 385.784,131.748 C386.623,131.029 387.885,131.125 388.605,131.963 C389.324,132.801 389.228,134.064 388.39,134.783 C387.552,135.503 386.289,135.406 385.569,134.568 z"/>
    <path d="M370.296,118.846 C369.479,118.103 369.42,116.838 370.163,116.021 C370.906,115.204 372.171,115.144 372.988,115.888 C373.805,116.631 373.865,117.896 373.122,118.713 C372.378,119.53 371.113,119.589 370.296,118.846 z"/>
    <path d="M353.207,105.12 C352.304,104.483 352.09,103.235 352.727,102.333 C353.364,101.431 354.612,101.216 355.515,101.853 C356.417,102.491 356.631,103.739 355.994,104.641 C355.357,105.543 354.109,105.758 353.207,105.12 z"/>
    <path d="M334.559,93.599 C333.586,93.077 333.219,91.865 333.741,90.891 C334.263,89.918 335.475,89.551 336.448,90.073 C337.422,90.595 337.789,91.807 337.267,92.78 C336.745,93.754 335.533,94.121 334.559,93.599 z"/>
    <path d="M314.638,84.457 C313.607,84.059 313.095,82.901 313.493,81.871 C313.891,80.84 315.049,80.328 316.079,80.726 C317.109,81.124 317.622,82.281 317.224,83.312 C316.826,84.342 315.668,84.855 314.638,84.457 z"/>
    <path d="M293.743,77.833 C292.672,77.564 292.021,76.478 292.289,75.407 C292.557,74.335 293.643,73.684 294.715,73.953 C295.786,74.221 296.438,75.307 296.169,76.378 C295.901,77.45 294.815,78.101 293.743,77.833 z"/>
    <path d="M272.193,73.827 C271.097,73.692 270.317,72.694 270.452,71.598 C270.586,70.502 271.584,69.722 272.68,69.857 C273.777,69.991 274.556,70.989 274.422,72.085 C274.287,73.182 273.289,73.961 272.193,73.827 z"/>
    <path d="M250.5,51.5 C249.948,51.5 249.5,51.052 249.5,50.5 C249.5,49.948 249.948,49.5 250.5,49.5 C251.052,49.5 251.5,49.948 251.5,50.5 C251.5,51.052 251.052,51.5 250.5,51.5 z"/>
    <path d="M225.559,53.069 C225.011,53.138 224.51,52.75 224.441,52.202 C224.372,51.654 224.76,51.154 225.308,51.085 C225.856,51.016 226.356,51.404 226.425,51.952 C226.495,52.5 226.107,53 225.559,53.069 z"/>
    <path d="M201.011,57.752 C200.476,57.889 199.931,57.567 199.793,57.032 C199.656,56.497 199.978,55.952 200.513,55.815 C201.048,55.677 201.593,56 201.731,56.535 C201.868,57.07 201.546,57.615 201.011,57.752 z"/>
    <path d="M177.243,65.474 C176.73,65.678 176.149,65.426 175.945,64.913 C175.742,64.399 175.993,63.818 176.507,63.615 C177.02,63.411 177.602,63.663 177.805,64.176 C178.008,64.69 177.757,65.271 177.243,65.474 z"/>
    <path d="M154.631,76.115 C154.147,76.381 153.539,76.204 153.273,75.72 C153.007,75.236 153.184,74.628 153.667,74.362 C154.151,74.096 154.759,74.273 155.026,74.757 C155.292,75.241 155.115,75.849 154.631,76.115 z"/>
    <path d="M133.531,89.505 C133.084,89.83 132.458,89.731 132.134,89.284 C131.809,88.837 131.908,88.212 132.355,87.887 C132.802,87.563 133.427,87.662 133.752,88.109 C134.077,88.555 133.977,89.181 133.531,89.505 z"/>
    <path d="M114.275,105.435 C113.872,105.813 113.24,105.793 112.862,105.391 C112.483,104.988 112.503,104.355 112.906,103.977 C113.309,103.599 113.941,103.619 114.319,104.022 C114.698,104.424 114.678,105.057 114.275,105.435 z"/>
    <path d="M97.168,123.652 C96.816,124.078 96.185,124.138 95.76,123.785 C95.334,123.433 95.275,122.803 95.627,122.378 C95.979,121.952 96.609,121.892 97.035,122.244 C97.46,122.596 97.52,123.227 97.168,123.652 z"/>
    <path d="M82.479,143.87 C82.183,144.337 81.565,144.475 81.098,144.179 C80.632,143.883 80.494,143.265 80.79,142.799 C81.086,142.332 81.704,142.194 82.17,142.49 C82.636,142.786 82.775,143.404 82.479,143.87 z"/>
    <path d="M70.439,165.77 C70.204,166.269 69.608,166.484 69.109,166.249 C68.609,166.014 68.394,165.418 68.63,164.918 C68.865,164.418 69.46,164.204 69.96,164.439 C70.46,164.674 70.674,165.27 70.439,165.77 z"/>
    <path d="M61.24,189.005 C61.069,189.531 60.505,189.818 59.979,189.647 C59.454,189.477 59.167,188.913 59.337,188.387 C59.508,187.862 60.072,187.575 60.598,187.745 C61.123,187.916 61.41,188.48 61.24,189.005 z"/>
    <path d="M55.025,213.211 C54.921,213.753 54.397,214.109 53.855,214.006 C53.312,213.902 52.957,213.379 53.06,212.836 C53.164,212.294 53.687,211.938 54.23,212.041 C54.772,212.145 55.128,212.668 55.025,213.211 z"/>
    <path d="M51.892,238.004 C51.858,238.556 51.383,238.974 50.832,238.94 C50.28,238.905 49.862,238.43 49.896,237.879 C49.931,237.328 50.406,236.909 50.957,236.944 C51.508,236.978 51.927,237.453 51.892,238.004 z"/>
    <path d="M51.892,262.995 C51.927,263.546 51.508,264.021 50.957,264.056 C50.406,264.09 49.931,263.672 49.896,263.121 C49.862,262.569 50.28,262.094 50.832,262.06 C51.383,262.025 51.858,262.444 51.892,262.995 z"/>
    <path d="M55.024,287.789 C55.128,288.331 54.772,288.855 54.23,288.958 C53.687,289.062 53.163,288.706 53.06,288.163 C52.956,287.621 53.312,287.097 53.855,286.994 C54.397,286.89 54.921,287.246 55.024,287.789 z"/>
    <path d="M61.239,311.994 C61.41,312.519 61.123,313.083 60.597,313.254 C60.072,313.425 59.508,313.137 59.337,312.612 C59.167,312.087 59.454,311.523 59.979,311.352 C60.505,311.181 61.069,311.469 61.239,311.994 z"/>
    <path d="M70.439,335.23 C70.674,335.729 70.46,336.325 69.96,336.56 C69.46,336.795 68.864,336.581 68.629,336.081 C68.394,335.582 68.609,334.986 69.108,334.751 C69.608,334.516 70.204,334.73 70.439,335.23 z"/>
    <path d="M82.478,357.129 C82.774,357.595 82.636,358.213 82.17,358.509 C81.703,358.805 81.085,358.667 80.79,358.201 C80.494,357.735 80.632,357.117 81.098,356.821 C81.564,356.525 82.182,356.663 82.478,357.129 z"/>
    <path d="M97.167,377.347 C97.519,377.773 97.46,378.403 97.034,378.755 C96.609,379.107 95.978,379.047 95.626,378.622 C95.274,378.196 95.334,377.566 95.759,377.214 C96.185,376.862 96.815,376.922 97.167,377.347 z"/>
    <path d="M114.275,395.564 C114.677,395.943 114.697,396.575 114.319,396.978 C113.941,397.381 113.308,397.4 112.905,397.022 C112.503,396.644 112.483,396.012 112.861,395.609 C113.239,395.206 113.872,395.186 114.275,395.564 z"/>
    <path d="M133.53,411.494 C133.977,411.819 134.076,412.444 133.751,412.891 C133.427,413.338 132.801,413.437 132.355,413.112 C131.908,412.788 131.809,412.162 132.133,411.715 C132.458,411.269 133.083,411.169 133.53,411.494 z"/>
    <path d="M154.63,424.885 C155.114,425.151 155.291,425.759 155.025,426.243 C154.759,426.727 154.151,426.904 153.667,426.637 C153.183,426.371 153.006,425.763 153.272,425.279 C153.538,424.795 154.146,424.619 154.63,424.885 z"/>
    <path d="M177.242,435.525 C177.756,435.729 178.007,436.31 177.804,436.823 C177.601,437.337 177.02,437.588 176.506,437.385 C175.993,437.182 175.741,436.6 175.945,436.087 C176.148,435.574 176.729,435.322 177.242,435.525 z"/>
    <path d="M201.01,443.248 C201.545,443.385 201.867,443.93 201.73,444.465 C201.592,445 201.048,445.322 200.513,445.185 C199.978,445.048 199.655,444.503 199.793,443.968 C199.93,443.433 200.475,443.111 201.01,443.248 z"/>
    <path d="M225.558,447.931 C226.106,448 226.494,448.5 226.425,449.048 C226.355,449.596 225.855,449.984 225.307,449.915 C224.759,449.846 224.371,449.345 224.44,448.798 C224.51,448.25 225.01,447.862 225.558,447.931 z"/>
    <path d="M250.499,449.5 C251.051,449.5 251.499,449.948 251.499,450.5 C251.499,451.052 251.051,451.5 250.499,451.5 C249.947,451.5 249.499,451.052 249.499,450.5 C249.499,449.948 249.947,449.5 250.499,449.5 z"/>
    <path d="M275.441,447.931 C275.988,447.862 276.489,448.25 276.558,448.798 C276.627,449.346 276.239,449.846 275.691,449.915 C275.143,449.984 274.643,449.596 274.574,449.048 C274.505,448.5 274.893,448 275.441,447.931 z"/>
    <path d="M299.988,443.248 C300.523,443.111 301.068,443.433 301.206,443.968 C301.343,444.503 301.021,445.048 300.486,445.185 C299.951,445.323 299.406,445 299.269,444.465 C299.131,443.931 299.454,443.386 299.988,443.248 z"/>
    <path d="M323.756,435.526 C324.27,435.322 324.851,435.574 325.054,436.087 C325.257,436.601 325.006,437.182 324.492,437.385 C323.979,437.589 323.398,437.337 323.194,436.824 C322.991,436.31 323.242,435.729 323.756,435.526 z"/>
    <path d="M346.368,424.885 C346.852,424.619 347.46,424.796 347.726,425.28 C347.992,425.764 347.816,426.372 347.332,426.638 C346.848,426.904 346.24,426.727 345.974,426.243 C345.708,425.759 345.884,425.151 346.368,424.885 z"/>
    <path d="M367.469,411.495 C367.915,411.17 368.541,411.269 368.865,411.716 C369.19,412.163 369.091,412.788 368.644,413.113 C368.197,413.437 367.572,413.338 367.247,412.891 C366.923,412.445 367.022,411.819 367.469,411.495 z"/>
    <path d="M386.724,395.565 C387.127,395.187 387.76,395.207 388.138,395.61 C388.516,396.012 388.496,396.645 388.093,397.023 C387.691,397.401 387.058,397.381 386.68,396.979 C386.302,396.576 386.322,395.943 386.724,395.565 z"/>
    <path d="M403.831,377.348 C404.184,376.922 404.814,376.863 405.239,377.215 C405.665,377.567 405.725,378.197 405.372,378.623 C405.02,379.048 404.39,379.108 403.965,378.756 C403.539,378.404 403.479,377.773 403.831,377.348 z"/>
    <path d="M418.521,357.13 C418.817,356.664 419.434,356.526 419.901,356.822 C420.367,357.117 420.505,357.735 420.209,358.202 C419.913,358.668 419.295,358.806 418.829,358.51 C418.363,358.214 418.225,357.596 418.521,357.13 z"/>
    <path d="M430.56,335.231 C430.795,334.731 431.391,334.516 431.891,334.752 C432.39,334.987 432.605,335.582 432.37,336.082 C432.134,336.582 431.539,336.796 431.039,336.561 C430.539,336.326 430.325,335.73 430.56,335.231 z"/>
    <path d="M439.76,311.995 C439.93,311.47 440.495,311.182 441.02,311.353 C441.545,311.524 441.832,312.088 441.662,312.613 C441.491,313.138 440.927,313.426 440.402,313.255 C439.876,313.084 439.589,312.52 439.76,311.995 z"/>
    <path d="M445.975,287.789 C446.078,287.247 446.602,286.891 447.144,286.995 C447.687,287.098 448.043,287.622 447.939,288.164 C447.836,288.707 447.312,289.063 446.77,288.959 C446.227,288.856 445.871,288.332 445.975,287.789 z"/>
    <path d="M449.107,262.996 C449.142,262.445 449.617,262.026 450.168,262.061 C450.719,262.095 451.138,262.57 451.103,263.121 C451.068,263.673 450.593,264.091 450.042,264.057 C449.491,264.022 449.072,263.547 449.107,262.996 z"/>
    <path d="M449.107,238.005 C449.072,237.454 449.491,236.979 450.042,236.944 C450.593,236.91 451.068,237.328 451.103,237.88 C451.138,238.431 450.719,238.906 450.168,238.94 C449.617,238.975 449.142,238.556 449.107,238.005 z"/>
    <path d="M445.975,213.212 C445.871,212.669 446.227,212.145 446.77,212.042 C447.312,211.938 447.836,212.294 447.939,212.837 C448.043,213.379 447.687,213.903 447.145,214.006 C446.602,214.11 446.078,213.754 445.975,213.212 z"/>
    <path d="M439.76,189.006 C439.589,188.481 439.877,187.917 440.402,187.746 C440.927,187.575 441.491,187.863 441.662,188.388 C441.833,188.913 441.545,189.477 441.02,189.648 C440.495,189.819 439.931,189.531 439.76,189.006 z"/>
    <path d="M430.56,165.77 C430.325,165.271 430.54,164.675 431.039,164.44 C431.539,164.205 432.135,164.419 432.37,164.919 C432.605,165.418 432.391,166.014 431.891,166.249 C431.391,166.484 430.796,166.27 430.56,165.77 z"/>
    <path d="M418.521,143.871 C418.225,143.404 418.363,142.787 418.83,142.491 C419.296,142.195 419.914,142.333 420.21,142.799 C420.506,143.265 420.368,143.883 419.901,144.179 C419.435,144.475 418.817,144.337 418.521,143.871 z"/>
    <path d="M403.832,123.653 C403.48,123.227 403.54,122.597 403.965,122.245 C404.391,121.893 405.021,121.952 405.373,122.378 C405.725,122.804 405.665,123.434 405.24,123.786 C404.814,124.138 404.184,124.078 403.832,123.653 z"/>
    <path d="M386.725,105.435 C386.322,105.057 386.302,104.425 386.68,104.022 C387.058,103.619 387.691,103.599 388.094,103.977 C388.496,104.356 388.516,104.988 388.138,105.391 C387.76,105.794 387.127,105.813 386.725,105.435 z"/>
    <path d="M367.469,89.506 C367.022,89.181 366.923,88.556 367.248,88.109 C367.573,87.662 368.198,87.563 368.645,87.888 C369.091,88.212 369.191,88.838 368.866,89.285 C368.541,89.731 367.916,89.83 367.469,89.506 z"/>
    <path d="M346.369,76.115 C345.885,75.849 345.708,75.241 345.974,74.757 C346.24,74.273 346.848,74.096 347.332,74.362 C347.816,74.629 347.993,75.237 347.727,75.721 C347.461,76.204 346.853,76.381 346.369,76.115 z"/>
    <path d="M323.757,65.475 C323.243,65.271 322.992,64.69 323.195,64.177 C323.398,63.663 323.979,63.412 324.493,63.615 C325.006,63.818 325.258,64.399 325.054,64.913 C324.851,65.426 324.27,65.678 323.757,65.475 z"/>
    <path d="M299.989,57.752 C299.454,57.615 299.132,57.07 299.269,56.535 C299.406,56 299.951,55.677 300.486,55.815 C301.021,55.952 301.344,56.497 301.206,57.032 C301.069,57.567 300.524,57.889 299.989,57.752 z"/>
    <path d="M275.441,53.069 C274.893,53 274.505,52.5 274.574,51.952 C274.643,51.404 275.144,51.016 275.692,51.085 C276.24,51.154 276.628,51.654 276.558,52.202 C276.489,52.75 275.989,53.138 275.441,53.069 z"/>
    <path d="M250.5,259.5 C245.529,259.5 241.5,255.471 241.5,250.5 C241.5,245.529 245.529,241.5 250.5,241.5 C255.471,241.5 259.5,245.529 259.5,250.5 C259.5,255.471 255.471,259.5 250.5,259.5 z"/>
  </g>
</svg>