<svg version="1.1" xmlns="http://www.w3.org/2000/svg" width="100%" height="100%" preserveAspectRatio="xMinYMin" viewBox="0, 0, 1000, 1000">
  <g id="buddha">
    <path id="shadow" class="fill-darker" fill="#A8C5DD" fill-opacity="0.2" d="M500.002,793 C289.396,793 118.672,811.266 118.672,833.805 C118.672,856.336 289.396,874.607 500.002,874.607 C710.603,874.607 881.328,856.336 881.328,833.805 C881.328,811.266 710.603,793 500.002,793" />
    <path id="base" class="fill-default" fill="#3090E5" d="M152.039,706.312 C207.254,669.5 291.918,695.268 291.918,695.268 C291.918,695.268 277.195,680.544 275.355,662.136 C273.519,643.731 290.082,581.153 290.082,581.153 C290.082,581.153 288.238,421.027 306.644,406.299 C325.051,391.577 361.859,391.577 361.859,391.577 C361.859,391.577 422.598,365.807 428.125,352.926 C433.644,340.04 398.672,255.376 409.711,251.695 C420.762,248.012 420.762,248.012 420.762,248.012 C420.762,248.012 407.875,213.043 422.598,190.958 C437.324,168.87 455.727,157.826 455.727,157.826 C455.727,157.826 453.156,142.712 466.16,133.117 C472.203,128.66 484.348,125.394 498.949,125.394 C513.551,125.394 524.094,128.66 530.137,133.117 C543.144,142.712 540.57,157.826 540.57,157.826 C540.57,157.826 558.977,168.87 573.698,190.958 C588.422,213.043 575.539,248.012 575.539,248.012 C575.539,248.012 575.539,248.012 586.586,251.695 C597.628,255.376 562.66,340.04 568.18,352.926 C573.698,365.807 634.437,391.577 634.437,391.577 C634.437,391.577 671.25,391.577 689.656,406.299 C708.061,421.027 706.219,581.153 706.219,581.153 C706.219,581.153 722.789,643.731 720.945,662.136 C719.101,680.544 704.379,695.268 704.379,695.268 C704.379,695.268 789.043,669.5 844.262,706.312 C899.477,743.12 844.262,800.179 844.262,800.179 L152.039,800.179 C152.039,800.179 96.824,743.12 152.039,706.312" />
    <path id="light" class="fill-lighter" fill="#85C2F7" d="M776.562,784.908 C784.16,770.008 795.229,755.607 800.215,739.544 C806.499,719.276 801.527,699.224 786.031,687.327 C805.964,689.193 826.621,694.547 844.262,706.312 C899.477,743.12 844.262,800.179 844.262,800.179 L768.18,800.179 C771.113,795.188 773.901,790.102 776.562,784.908 M484.961,126.487 C504.945,133.166 520.628,146.234 507.781,166.031 C542.167,180.803 553.523,214.051 564.176,248.74 C569.027,264.52 576.016,287.43 570.852,303.439 C566.461,317.048 554.562,336.258 557.269,346.592 C560.773,359.948 593.25,382.781 611.863,412.081 C625.461,433.486 620.758,463.138 624.926,472.113 C640.594,470.185 624.265,406.305 638.656,411.158 C656.601,417.21 662.223,428.116 666.065,446.042 C670.441,466.447 672.268,488.663 672.644,509.496 C673.043,531.75 703.789,683.698 666.574,705.87 C685.758,718.449 661.586,759.411 657.141,780.659 C664.375,775.828 720.078,724.549 720.148,724.451 C723.238,720.227 723.664,719.685 722.8,714.133 C721.922,708.477 718.16,703.391 715.065,698.756 C713.707,696.721 713.328,694.721 713.586,692.902 C707.777,694.24 704.379,695.268 704.379,695.268 C704.379,695.268 719.101,680.544 720.945,662.136 C722.789,643.73 706.219,581.152 706.219,581.152 C706.219,581.152 708.061,421.027 689.656,406.299 C671.25,391.577 634.437,391.577 634.437,391.577 C634.437,391.577 573.698,365.807 568.18,352.926 C562.66,340.04 597.628,255.375 586.586,251.694 C575.539,248.012 575.539,248.012 575.539,248.012 C575.539,248.012 588.422,213.042 573.698,190.957 C558.977,168.869 540.57,157.825 540.57,157.825 C540.57,157.825 543.144,142.711 530.137,133.116 C524.094,128.66 513.551,125.393 498.949,125.393 C493.933,125.393 489.25,125.801 484.961,126.487 M731.191,689.513 C746.82,694.915 748.627,709.716 738.477,728.438 C735.793,733.383 704.265,769.988 704.8,775.542 C705.547,783.337 749.835,753.797 753.918,760.901 C756.254,764.977 727.277,796.078 729.746,800.178 C732.074,795.865 766.223,764.384 768.68,760.099 C778.901,742.282 783.16,733.816 779.707,702.06 C779.07,696.198 767.933,686.516 762.609,686.586 C750.98,686.888 740.233,688.094 731.191,689.513 M342.113,399.753 C356.32,391.709 342.113,474.834 342.113,490.449 C342.113,506.071 356.316,636.909 356.316,636.909 C356.316,636.909 383.027,656.688 390.727,662.708 C398.426,668.727 382.656,675.232 367.527,661.228 C352.394,647.219 302.84,627.304 300.53,616.909 C298.219,606.512 322.477,605.358 321.277,577.637 C320.078,549.916 322.477,465.59 321.324,433.25 C320.164,400.908 342.113,399.753 342.113,399.753 M439.984,792.482 C459.401,795.394 518.164,800.178 518.164,800.178 L290.707,800.178 C290.707,800.178 246.238,787.862 228.362,765.011 C210.488,742.159 215.051,704.696 228.362,698.662 C241.672,692.63 233.534,698.922 246.968,731.031 C260.41,763.139 315.543,777.469 322.477,775.542 C329.406,773.617 284.359,735.885 282.051,719.373 C279.738,702.862 288.977,703.542 305.152,707.005 C321.324,710.469 310.926,724.333 340.961,751.427 C370.988,778.521 413.484,788.508 439.984,792.482" />
    <path id="dark" class="fill-darker" fill="#0D47A1" d="M497.769,187.643 C442.281,187.637 436.215,225.863 436.215,225.863 C436.215,225.863 436.215,181.676 497.835,181.025 C559.457,180.378 565.195,231.835 565.195,231.835 C565.195,231.835 553.25,187.648 497.769,187.643 M528.34,255.721 C538.855,255.721 549.371,249.749 549.371,249.749 L510.461,249.749 C510.461,249.749 517.824,255.721 528.34,255.721 M572.141,298.615 C576.964,297.971 572.141,284.465 575.355,275.815 C578.57,267.164 580.504,263.237 579.539,260.343 C578.57,257.449 573.426,260.343 573.426,260.343 C565.383,267.741 567.316,299.259 572.141,298.615 M570.852,303.439 C570.852,303.439 568.281,303.267 565.383,309.228 C565.383,309.228 551.555,335.603 554.773,345.573 C557.992,355.542 567.957,355.542 567.957,355.542 L568.172,342.568 C568.172,342.568 560.933,346.859 561.229,340.747 C561.527,334.637 570.852,303.439 570.852,303.439 M794.719,705.327 C809.305,723.79 781.105,775.542 781.105,775.542 C781.105,775.542 809.187,736.046 808.312,713.326 C807.433,690.607 789.324,687.67 789.324,687.67 L767.933,686.516 C767.933,686.516 780.132,686.868 794.719,705.327 M703.866,765.011 C703.866,765.011 744.246,729.904 748.627,709.716 C753.023,689.532 735.262,688.896 735.262,688.896 L722.949,690.927 C722.949,690.927 738.977,697.432 741.609,708.839 C744.246,720.25 703.866,765.011 703.866,765.011 M490.672,213.643 C490.672,217.626 494.019,220.857 498.148,220.857 C502.277,220.857 505.625,217.626 505.625,213.643 C505.625,209.658 502.277,206.427 498.148,206.427 C494.019,206.427 490.672,209.658 490.672,213.643 M536.628,225.189 C519.652,222.613 513.901,230.4 513.664,230.732 L516.059,232.955 C516.105,232.891 521.141,226.393 536.219,228.668 C551.109,230.923 553.582,237.365 553.598,237.43 C553.598,237.43 553.387,227.727 536.628,225.189 M468.3,255.721 C478.816,255.721 486.18,249.749 486.18,249.749 L447.269,249.749 C447.269,249.749 457.785,255.721 468.3,255.721 M497.992,299.099 C497.992,299.099 491.968,294.339 488.109,295.302 C484.254,296.268 478.141,303.022 478.141,303.022 C489.394,298.198 497.309,303.022 497.309,303.022 C497.309,303.022 506.796,298.198 518.059,303.022 C518.059,303.022 511.945,296.268 508.086,295.302 C504.229,294.339 497.992,299.099 497.992,299.099 M493.973,314.923 C498.101,314.913 498.101,314.913 498.101,314.913 L498.055,314.737 L498.309,314.913 C498.309,314.913 498.309,314.913 502.437,314.923 C506.565,314.932 518.164,308.491 518.164,308.491 L495.953,309.712 L478.246,308.491 C478.246,308.491 489.844,314.932 493.973,314.923 M424.16,298.615 C428.98,299.259 430.914,267.741 422.871,260.343 C422.871,260.343 417.727,257.449 416.762,260.343 C415.796,263.237 417.727,267.164 420.945,275.815 C424.16,284.465 419.335,297.971 424.16,298.615 M441.527,345.573 C444.742,335.603 430.914,309.228 430.914,309.228 C428.019,303.267 425.445,303.439 425.445,303.439 C425.445,303.439 434.773,334.637 435.07,340.747 C435.362,346.859 428.125,342.568 428.125,342.568 L428.344,355.542 C428.344,355.542 438.312,355.542 441.527,345.573 M550.121,313.986 C550.121,313.986 533.8,335.645 520.414,340.163 C512.707,342.762 503.8,345.57 498.043,345.595 C492.289,345.619 483.348,342.885 475.641,340.283 C462.25,335.766 446.18,313.986 446.18,313.986 C446.18,313.986 454.625,349.123 464.023,355.541 C471.148,360.41 489.441,362.178 498.101,361.81 C506.34,361.46 523.547,358.305 529.918,353.066 C538.41,346.083 550.121,313.986 550.121,313.986 M497.07,153.484 L534.031,155.325 C534.031,155.325 517.711,147.729 508.781,147.719 C504.605,147.712 502.397,147.71 501.211,147.71 L501.203,147.71 C499.863,147.708 499.855,147.708 499.855,147.708 L499.855,147.71 C497.875,147.71 493.727,147.71 487.519,147.719 C478.59,147.729 462.269,155.325 462.269,155.325 L497.07,153.484 M567.957,366.55 L559.519,480.885 C555.484,483.614 545.512,489.129 534.516,485.98 C519.559,481.705 503.437,472.212 503.277,472.113 C503.277,472.113 518.164,484.957 533.547,489.355 C536.254,490.128 538.883,490.448 541.394,490.448 C548.84,490.448 555.184,487.62 559.199,485.264 L556.125,526.87 C556.125,526.87 553.769,571.339 534.031,578.357 C520.698,583.104 475.601,583.104 462.269,578.357 C442.527,571.339 440.176,526.87 440.176,526.87 L437.105,485.264 C441.113,487.62 447.468,490.448 454.906,490.448 C457.414,490.448 460.047,490.128 462.75,489.355 C478.144,484.957 493.019,472.113 493.019,472.113 C492.859,472.212 476.75,481.705 461.789,485.98 C450.789,489.129 440.82,483.614 436.781,480.885 L428.344,366.55 C428.344,366.55 425.117,574.699 446.18,589.91 C463.488,602.41 528.488,604.913 545.796,592.413 C566.863,577.202 567.957,366.55 567.957,366.55 M570.852,616.887 C602.48,600.531 605.57,415.701 605.57,415.701 C605.57,415.701 598.547,586.549 570.852,607.616 C548.945,624.278 517.68,628.624 498.961,628.647 C479.84,628.676 447.355,624.278 425.445,607.616 C397.75,586.549 390.727,415.701 390.727,415.701 C390.727,415.701 393.824,600.531 425.445,616.887 C456.848,633.125 483.977,636.241 495.316,636.797 L495.316,636.891 C495.316,636.891 496.32,636.934 498.148,636.896 C499.98,636.934 500.984,636.891 500.984,636.891 L500.984,636.797 C512.328,636.241 539.453,633.125 570.852,616.887 M626.644,636.909 C626.644,636.909 633.703,596.363 640.66,552.894 C647.621,509.35 645.09,423.525 645.065,422.667 L640.809,406.563 C640.84,407.424 644.105,509.124 637.191,552.339 C630.828,592.102 622.926,622.831 621.617,627.812 C617.73,630.013 601.516,639.318 598.191,642.651 C595.191,645.648 574.437,645.648 556.125,645.648 C542.621,645.648 506.289,650.131 498.148,654.095 C490.012,650.131 453.68,645.648 440.176,645.648 C421.863,645.648 401.109,645.648 398.117,642.651 C394.781,639.318 378.565,630.013 374.68,627.812 C373.375,622.831 365.477,592.102 359.113,552.339 C352.195,509.124 355.465,407.424 355.492,406.563 L351.233,422.667 C351.207,423.525 348.68,509.35 355.648,552.894 C362.601,596.363 372.309,634.19 372.309,634.19 C372.309,634.19 391.832,647.293 394.57,650.032 C398.401,653.865 414.84,658.168 439.964,658.168 C459.609,658.168 494.335,663.951 497.754,665.879 C497.754,665.879 536.348,654.318 555.992,654.318 C581.117,654.318 597.555,655.146 601.387,651.319 C604.125,648.581 621.09,640.053 626.644,636.909 M201.578,705.327 C216.172,686.868 228.362,686.516 228.362,686.516 L206.977,687.67 C206.977,687.67 188.866,690.607 187.984,713.326 C187.109,736.046 215.195,775.542 215.195,775.542 C215.195,775.542 186.996,723.79 201.578,705.327 M254.691,708.839 C257.32,697.432 273.352,690.927 273.352,690.927 L261.039,688.896 C261.039,688.896 243.281,689.532 247.667,709.716 C252.061,729.904 292.43,765.011 292.43,765.011 C292.43,765.011 252.061,720.25 254.691,708.839 M460.422,228.668 C475.496,226.393 480.534,232.891 480.586,232.955 L482.977,230.732 C482.738,230.4 476.988,222.613 460.016,225.189 C443.254,227.727 443.034,237.43 443.034,237.43 C443.065,237.365 445.53,230.923 460.422,228.668 M508.152,775.542 C422.137,784.318 356.316,726.953 356.316,726.953 C356.316,726.953 407.129,785.199 503.277,783.441 C599.426,781.688 620.496,719.373 620.496,719.373 C620.496,719.373 594.164,766.764 508.152,775.542 M290.707,693.964 C292.211,694.43 443.422,740.255 488.457,741.378 C505.078,741.755 520.727,736.196 533.992,728.706 C533.387,728.72 538.082,725.034 540.309,724.893 C558.625,713.095 571.246,698.516 573.613,693.873 C573.988,693.133 573.82,692.982 573.746,692.911 C571.281,690.724 555.492,692.85 545.144,699.704 C542.082,701.732 517.132,704.456 501.684,705.969 C497.219,706.708 493.43,706.812 492.559,706.831 L478.516,706.279 C480.034,707.331 476.964,705.195 477.926,705.87 C483.961,705.031 498.422,702.758 500.824,702.522 C506.391,701.622 512.609,699.823 514.863,696.484 C515.883,694.977 515.984,693.222 515.184,691.125 C514.812,690.164 514.277,689.508 513.527,689.056 C511.468,688.844 509.348,688.617 507.199,688.383 C505.578,688.5 503.641,688.712 501.305,688.98 C495.894,689.612 488.477,690.47 479.086,690.47 C472.999,690.47 442.914,692.238 442.812,692.247 L421.684,692.766 C423.141,692.652 426.906,692.172 431.875,691.535 C428.887,687.656 416.578,673.251 399.578,674.901 C379.949,676.797 372.352,679.784 372.352,679.784 L397.672,668.594 C397.672,668.594 374.453,647.675 356.316,640.714 C338.167,633.751 329.309,629.953 329.309,629.953 C329.309,629.953 359.691,639.451 366.656,640.714 C373.621,641.982 404.008,668.594 404.008,668.594 C404.008,668.594 421.628,669.203 428.324,675.532 C435.023,681.863 439.984,690.508 439.984,690.508 C444.117,689.99 448.582,689.451 453.086,688.948 C449.238,684.711 446.695,681.227 445.703,679.281 C444.258,676.433 445.687,674.717 446.362,674.109 C451.258,669.755 469.613,674.219 479.227,680.591 C480.891,681.571 492.719,683.22 507.132,684.828 C506.16,684.078 505.324,683.225 504.672,682.268 C502.992,679.776 502.762,676.896 503.988,673.69 C506.34,667.557 512.061,668.217 521.547,669.315 C527.172,669.97 534.176,670.777 543.359,670.777 C556.051,670.777 568.719,673.044 573.219,673.925 C573.401,672.893 576.742,656.849 605.766,660.062 L615.074,661.094 C615.312,658.904 617.609,657.003 619.477,655.68 C632.871,646.167 660.41,645.102 661.574,645.065 L702.086,645.065 C701.809,645.069 634.051,649.631 621.508,658.54 C618.75,660.501 618.582,661.444 618.562,661.444 C618.57,661.458 618.574,661.467 618.59,661.482 L633.805,663.174 L686.598,666.911 C682.628,667.138 621.534,667.062 617.468,664.889 L605.379,663.552 C584.031,661.156 586.061,667.172 584.703,670.578 C587.848,671.88 588.812,678.065 606.211,684.884 C626.933,693.006 628.401,707.863 628.366,712.125 C668.768,704.733 704.8,696.97 704.8,696.97 C703.613,697.258 583.051,739.354 532.727,743.154 C518.352,752.35 518.453,751.427 499.061,751.427 C498.437,751.427 482.565,752.266 467.397,751.427 C412.516,748.396 300.32,697.917 294.152,696.008 L290.707,693.964 M491.504,686.459 C484.3,685.454 478.652,684.422 477.3,683.527 C466.957,676.669 451.167,674.539 448.703,676.73 C448.621,676.802 448.457,676.948 448.835,677.691 C449.871,679.727 452.898,683.682 457.499,688.471 C465.738,687.609 473.652,686.958 479.086,686.958 C483.754,686.958 487.855,686.751 491.504,686.459 z M547.667,724.318 C567.043,722.542 593.426,718.37 619.065,713.802 C613.09,710.399 623.586,695.462 604.929,688.151 C590.352,682.438 581.945,679.044 577.733,677.319 C568.258,675.014 555.957,673.11 543.359,674.289 C534.008,675.165 526.551,673.43 521.141,672.803 C511.637,671.706 508.578,671.516 507.265,674.948 C506.465,677.047 506.565,678.794 507.586,680.302 C509.84,683.644 516.078,685.451 521.664,686.35 C524.477,686.623 527.297,686.893 530.078,687.147 L538.121,688.896 C537.254,688.878 525.223,690.526 520.754,689.786 C519.961,689.711 519.129,689.626 518.285,689.542 C518.34,689.664 518.406,689.745 518.453,689.871 C519.68,693.073 519.453,695.956 517.769,698.451 C517.125,699.407 516.285,700.26 515.305,701.01 C529.73,699.402 541.551,697.747 543.207,696.777 C552.84,690.389 571.199,685.935 576.078,690.292 C576.762,690.899 578.184,692.615 576.742,695.462 C574.43,700.005 563.676,712.855 547.667,724.318 z M498.097,289.421 C506.492,290.177 511.906,284.628 511.906,284.628 C511.906,284.628 503.832,287.152 498.203,287.06 C492.57,286.97 486.18,284.628 486.18,284.628 C486.18,284.628 489.703,288.665 498.097,289.421 M153.867,838.151 L844.262,838.151 L844.262,800.179 L153.867,800.179 z" />
  </g>
</svg>