<?xml version="1.0" encoding="UTF-8"?>
<svg version="1.1" xmlns="http://www.w3.org/2000/svg" xmlns:xlink="http://www.w3.org/1999/xlink" x="0" y="0" width="400" height="400" viewBox="0, 0, 400, 400">
  <defs>
    <radialGradient id="Gradient_1" gradientUnits="userSpaceOnUse" cx="12.208" cy="616.437" r="199.962" gradientTransform="matrix(0, -1.982, 1.844, 0, -1030.398, 455.004)">
      <stop offset="0" stop-color="#FFDD55"/>
      <stop offset="0.1" stop-color="#FFDD55"/>
      <stop offset="0.5" stop-color="#FF543E"/>
      <stop offset="1" stop-color="#C837AB"/>
    </radialGradient>
    <radialGradient id="Gradient_2" gradientUnits="userSpaceOnUse" cx="157.863" cy="486.859" r="199.969" gradientTransform="matrix(0.174, 0.869, -3.582, 0.717, 1649.352, -457.493)">
      <stop offset="0" stop-color="#3771C8"/>
      <stop offset="0.128" stop-color="#3771C8"/>
      <stop offset="1" stop-color="#6600FF" stop-opacity="0"/>
    </radialGradient>
  </defs>
  <g id="Layer_1">
    <path fill="url(#Gradient_1)" d="M200.065,0 C116.567,0 92.147,0.086 87.4,0.48 C70.265,1.905 59.602,4.603 47.986,10.389 C39.034,14.835 31.974,19.989 25.006,27.215 C12.316,40.391 4.625,56.602 1.841,75.871 C0.487,85.226 0.094,87.134 0.014,134.916 C-0.017,150.844 0.014,171.805 0.014,199.922 C0.014,283.375 0.106,307.777 0.506,312.516 C1.89,329.194 4.505,339.687 10.043,351.165 C20.625,373.136 40.837,389.63 64.648,395.784 C72.892,397.908 81.998,399.077 93.688,399.631 C98.641,399.846 149.124,400 199.638,400 C250.151,400 300.665,399.938 305.495,399.692 C319.031,399.055 326.891,398 335.581,395.753 C359.546,389.568 379.388,373.321 390.186,351.042 C395.616,339.841 398.37,328.948 399.615,313.14 C399.886,309.694 400,254.745 400,199.869 C400,144.985 399.877,90.137 399.606,86.69 C398.345,70.628 395.592,59.827 389.986,48.41 C385.387,39.065 380.281,32.086 372.867,24.95 C359.635,12.309 343.454,4.616 324.171,1.834 C314.828,0.483 312.967,0.083 265.161,0 L200.065,0 z"/>
    <path fill="url(#Gradient_2)" d="M200.065,0 C116.567,0 92.147,0.086 87.4,0.48 C70.265,1.905 59.602,4.603 47.986,10.389 C39.034,14.835 31.974,19.989 25.006,27.215 C12.316,40.391 4.625,56.602 1.841,75.871 C0.487,85.226 0.094,87.134 0.014,134.916 C-0.017,150.844 0.014,171.805 0.014,199.922 C0.014,283.375 0.106,307.777 0.506,312.516 C1.89,329.194 4.505,339.687 10.043,351.165 C20.625,373.136 40.837,389.63 64.648,395.784 C72.892,397.908 81.998,399.077 93.688,399.631 C98.641,399.846 149.124,400 199.638,400 C250.151,400 300.665,399.938 305.495,399.692 C319.031,399.055 326.891,398 335.581,395.753 C359.546,389.568 379.388,373.321 390.186,351.042 C395.616,339.841 398.37,328.948 399.615,313.14 C399.886,309.694 400,254.745 400,199.869 C400,144.985 399.877,90.137 399.606,86.69 C398.345,70.628 395.592,59.827 389.986,48.41 C385.387,39.065 380.281,32.086 372.867,24.95 C359.635,12.309 343.454,4.616 324.171,1.834 C314.828,0.483 312.967,0.083 265.161,0 L200.065,0 z"/>
    <path fill="#FFFFFF" d="M199.973,52.312 C159.87,52.312 154.837,52.488 139.086,53.204 C123.366,53.925 112.636,56.414 103.247,60.067 C93.535,63.839 85.296,68.886 77.088,77.099 C68.875,85.309 63.829,93.549 60.045,103.261 C56.385,112.656 53.893,123.392 53.185,139.11 C52.481,154.865 52.296,159.903 52.296,200.017 C52.296,240.131 52.475,245.15 53.188,260.905 C53.911,276.63 56.4,287.363 60.049,296.754 C63.823,306.469 68.868,314.71 77.079,322.92 C85.284,331.136 93.522,336.195 103.228,339.967 C112.623,343.62 123.357,346.109 139.074,346.829 C154.825,347.546 159.854,347.722 199.955,347.722 C240.061,347.722 245.078,347.546 260.829,346.829 C276.549,346.109 287.292,343.62 296.687,339.967 C306.396,336.195 314.622,331.136 322.827,322.92 C331.041,314.71 336.086,306.469 339.87,296.757 C343.5,287.363 345.992,276.626 346.73,260.908 C347.438,245.153 347.622,240.131 347.622,200.017 C347.622,159.903 347.438,154.868 346.73,139.113 C345.992,123.389 343.5,112.656 339.87,103.264 C336.086,93.549 331.041,85.309 322.827,77.099 C314.613,68.883 306.399,63.836 296.678,60.067 C287.264,56.414 276.528,53.925 260.808,53.204 C245.057,52.488 240.042,52.312 199.927,52.312 z M186.726,78.93 C190.658,78.924 195.045,78.93 199.973,78.93 C239.399,78.93 244.072,79.071 259.642,79.779 C274.039,80.438 281.853,82.844 287.058,84.866 C293.949,87.543 298.862,90.743 304.027,95.913 C309.196,101.082 312.395,106.006 315.078,112.899 C317.099,118.099 319.507,125.915 320.163,140.316 C320.87,155.887 321.024,160.564 321.024,199.983 C321.024,239.402 320.87,244.079 320.163,259.65 C319.504,274.051 317.099,281.867 315.078,287.067 C312.401,293.96 309.196,298.868 304.027,304.035 C298.859,309.205 293.952,312.405 287.058,315.082 C281.859,317.113 274.039,319.513 259.642,320.172 C244.075,320.879 239.399,321.033 199.973,321.033 C160.544,321.033 155.871,320.879 140.304,320.172 C125.907,319.507 118.093,317.101 112.885,315.079 C105.994,312.402 101.072,309.202 95.903,304.032 C90.735,298.862 87.536,293.951 84.853,287.055 C82.832,281.855 80.423,274.039 79.768,259.637 C79.06,244.067 78.919,239.389 78.919,199.946 C78.919,160.503 79.06,155.85 79.768,140.28 C80.426,125.878 82.832,118.062 84.853,112.856 C87.53,105.963 90.735,101.039 95.903,95.87 C101.072,90.7 105.994,87.5 112.885,84.816 C118.09,82.785 125.907,80.385 140.304,79.724 C153.926,79.108 159.205,78.924 186.726,78.893 z M278.795,103.455 C269.012,103.455 261.075,111.385 261.075,121.173 C261.075,130.959 269.012,138.898 278.795,138.898 C288.578,138.898 296.515,130.959 296.515,121.173 C296.515,111.388 288.578,103.449 278.795,103.449 z M199.973,124.164 C158.095,124.164 124.141,158.127 124.141,200.017 C124.141,241.907 158.095,275.854 199.973,275.854 C241.851,275.854 275.793,241.907 275.793,200.017 C275.793,158.127 241.848,124.164 199.97,124.164 z M199.973,150.782 C227.156,150.782 249.195,172.824 249.195,200.017 C249.195,227.207 227.156,249.252 199.973,249.252 C172.787,249.252 150.751,227.207 150.751,200.017 C150.751,172.824 172.787,150.782 199.973,150.782 z"/>
  </g>
</svg>
